<svg width="75" height="75" viewBox="0 0 75 75" fill="none" xmlns="http://www.w3.org/2000/svg">
<path fill-rule="evenodd" clip-rule="evenodd" d="M23.0723 6.38913C23.6858 6.29097 24.2627 6.70874 24.3609 7.32226L27.2392 25.3119C27.2583 25.4313 27.3337 25.5341 27.4418 25.5881L30.9778 27.3561C31.3269 26.953 31.7129 26.5825 32.1305 26.2499C30.1477 24.6705 28.875 22.2346 28.875 19.5C28.875 16.9708 29.9646 14.6958 31.6966 13.1195C31.3717 11.3963 31.6524 9.37882 32.9577 7.11804C33.2683 6.57996 33.9564 6.3956 34.4945 6.70626C35.0325 7.01692 35.2169 7.70496 34.9062 8.24304C34.134 9.58052 33.8415 10.7258 33.8241 11.6956C34.9396 11.1694 36.1861 10.875 37.5 10.875C38.8568 10.875 40.1417 11.1889 41.2847 11.7479C41.277 10.7663 40.9876 9.60395 40.2018 8.24304C39.8912 7.70496 40.0755 7.01692 40.6136 6.70626C41.1517 6.3956 41.8397 6.57996 42.1504 7.11804C43.4779 9.41732 43.7451 11.464 43.3951 13.2041C45.0737 14.7766 46.125 17.0158 46.125 19.5C46.125 22.2346 44.8523 24.6705 42.8695 26.2499C43.2871 26.5825 43.6731 26.953 44.0222 27.3561L47.5582 25.5881C47.6663 25.5341 47.7417 25.4313 47.7608 25.3119L50.6391 7.32226C50.7373 6.70874 51.3142 6.29097 51.9277 6.38913C52.5413 6.48729 52.959 7.06422 52.8609 7.67774L49.9825 25.6674C49.8489 26.5027 49.321 27.2223 48.5644 27.6006L45.2684 29.2486C45.5261 29.7816 45.7308 30.3452 45.8753 30.9324L53.8084 29.0658C53.9168 29.0403 54.0082 28.968 54.058 28.8685L60.4938 15.9969C60.7716 15.4412 61.4474 15.2159 62.0031 15.4938C62.5588 15.7716 62.7841 16.4474 62.5062 17.0031L56.0704 29.8747C55.722 30.5715 55.0821 31.0776 54.3238 31.256L46.123 33.1856C46.1073 33.9273 45.9978 34.647 45.8056 35.3327L50.5826 36.925C51.4264 37.2063 52.0703 37.8956 52.2935 38.7565L57.339 58.2177C57.4949 58.8191 57.1338 59.4331 56.5323 59.589C55.9309 59.7449 55.3169 59.3838 55.161 58.7823L50.1155 39.3212C50.0836 39.1982 49.9917 39.0997 49.8711 39.0596L44.9151 37.4076C44.6071 37.9248 44.2466 38.407 43.841 38.8466C47.08 41.6269 49.125 46.4276 49.125 51.75C49.125 55.9003 47.887 59.7024 45.8303 62.4936C43.774 65.2844 40.8416 67.125 37.5 67.125C34.1584 67.125 31.226 65.2844 29.1697 62.4936C27.113 59.7024 25.875 55.9003 25.875 51.75C25.875 46.4276 27.92 41.6269 31.159 38.8466C30.7534 38.407 30.3929 37.9248 30.0849 37.4076L25.1289 39.0596C25.0084 39.0997 24.9164 39.1982 24.8845 39.3212L19.839 58.7823C19.6831 59.3838 19.0691 59.7449 18.4677 59.589C17.8662 59.4331 17.5051 58.8191 17.661 58.2177L22.7065 38.7565C22.9297 37.8956 23.5736 37.2063 24.4174 36.925L29.1944 35.3327C29.0022 34.647 28.8927 33.9273 28.877 33.1856L20.6762 31.256L20.9339 30.1609L20.6762 31.256C19.9179 31.0776 19.278 30.5715 18.9296 29.8747L12.4938 17.0031C12.2159 16.4474 12.4412 15.7716 12.9969 15.4938C13.5526 15.2159 14.2284 15.4412 14.5062 15.9969L20.942 28.8685C20.9918 28.968 21.0832 29.0403 21.1916 29.0658L29.1247 30.9324C29.2692 30.3452 29.4739 29.7816 29.7317 29.2486L26.4356 27.6006C25.679 27.2223 25.1511 26.5026 25.0175 25.6674L22.1391 7.67774C22.041 7.06422 22.4587 6.48729 23.0723 6.38913ZM32.9209 40.3102C30.1243 42.5225 28.125 46.7513 28.125 51.75C28.125 55.4697 29.2375 58.7926 30.9811 61.1589C32.725 63.5256 35.0427 64.875 37.5 64.875C39.9574 64.875 42.275 63.5256 44.0189 61.1589C45.7625 58.7926 46.875 55.4697 46.875 51.75C46.875 46.7513 44.8757 42.5225 42.0791 40.3102C40.7519 41.1431 39.1811 41.625 37.5 41.625C35.8189 41.625 34.2481 41.1431 32.9209 40.3102ZM40.727 27.5007C39.7291 27.9035 38.6393 28.125 37.5 28.125C36.3607 28.125 35.2709 27.9035 34.273 27.5007C33.46 27.979 32.7617 28.6328 32.2309 29.4103C31.6376 30.2791 31.2543 31.3009 31.1523 32.4051C31.1343 32.6007 31.125 32.7991 31.125 33C31.125 33.9208 31.3195 34.7932 31.6686 35.5807C32.0993 36.5521 32.7666 37.3972 33.598 38.0418C34.6765 38.8779 36.0286 39.375 37.5 39.375C38.9714 39.375 40.3235 38.8779 41.402 38.0418C42.2334 37.3972 42.9007 36.5521 43.3314 35.5807C43.6805 34.7932 43.875 33.9208 43.875 33C43.875 32.7991 43.8657 32.6007 43.8477 32.4051C43.7457 31.3009 43.3624 30.2791 42.7691 29.4103C42.2383 28.6328 41.54 27.979 40.727 27.5007ZM37.5 13.125C36.0462 13.125 34.7089 13.6103 33.6369 14.4283C32.108 15.5949 31.125 17.4325 31.125 19.5C31.125 22.0217 32.589 24.2036 34.7185 25.2381C35.5577 25.6458 36.5005 25.875 37.5 25.875C38.4995 25.875 39.4423 25.6458 40.2815 25.2381C42.411 24.2036 43.875 22.0217 43.875 19.5C43.875 17.466 42.9237 15.6549 41.4373 14.4858C40.3531 13.633 38.9874 13.125 37.5 13.125Z" fill="#DBE1C9"/>
</svg>
