<svg width="75" height="75" viewBox="0 0 75 75" fill="none" xmlns="http://www.w3.org/2000/svg">
<path fill-rule="evenodd" clip-rule="evenodd" d="M34.4945 6.52573C35.0325 6.83639 35.2169 7.52443 34.9062 8.0625C34.134 9.39998 33.8415 10.5453 33.8241 11.5151C34.9396 10.9889 36.1861 10.6945 37.5 10.6945C38.8568 10.6945 40.1417 11.0084 41.2847 11.5673C41.277 10.5858 40.9876 9.42341 40.2018 8.0625C39.8912 7.52443 40.0755 6.83639 40.6136 6.52573C41.1517 6.21507 41.8397 6.39943 42.1504 6.9375C43.4779 9.23678 43.7451 11.2834 43.3951 13.0235C45.0737 14.5961 46.125 16.8352 46.125 19.3195C46.125 20.0083 46.044 20.6793 45.8908 21.3229C48.3922 22.3528 50.5975 23.8333 52.35 25.6512L53.235 25.0191C53.364 24.9269 53.4211 24.7635 53.3776 24.611L50.7612 15.4537C50.6541 15.079 50.6318 14.6853 50.6959 14.301L51.3903 10.1345C51.4925 9.52165 52.0721 9.10762 52.685 9.20977C53.2978 9.31191 53.7118 9.89155 53.6097 10.5044L52.9153 14.6709C52.9061 14.7258 52.9093 14.782 52.9246 14.8355L55.541 23.9928C55.846 25.0605 55.4463 26.2046 54.5427 26.85L53.803 27.3784C54.2109 27.9379 54.5802 28.521 54.9071 29.1253C55.4368 30.1044 55.2116 31.1659 54.5903 31.8869C54.9168 33.9602 55.1001 36.1247 55.1226 38.3511L58.0669 41.2953C58.5994 41.8279 58.8776 42.5635 58.8306 43.3152L58.148 54.2365C58.1439 54.3025 58.1573 54.3685 58.1869 54.4276L59.5062 57.0663C59.7841 57.6221 59.5588 58.2978 59.0031 58.5757C58.4474 58.8536 57.7716 58.6283 57.4938 58.0726L56.1744 55.4338C55.9674 55.0197 55.8735 54.5582 55.9024 54.0962L56.585 43.1749C56.5917 43.0675 56.5519 42.9624 56.4759 42.8863L55.049 41.4595C54.746 46.6997 53.5493 51.5369 51.6921 55.5573L52.575 56.2195C53.236 56.7152 53.625 57.4932 53.625 58.3195V65.7667C53.625 65.8921 53.6877 66.0092 53.792 66.0787L55.374 67.1334C55.891 67.4781 56.0307 68.1765 55.6861 68.6935C55.3414 69.2105 54.6429 69.3502 54.126 69.0055L52.5439 67.9508C51.8136 67.464 51.375 66.6444 51.375 65.7667V58.3195C51.375 58.2014 51.3194 58.0903 51.225 58.0195L50.6561 57.5928C47.5291 63.1789 42.8905 66.9445 37.5 66.9445C32.1095 66.9445 27.4709 63.1789 24.3439 57.5928L23.775 58.0195C23.6806 58.0903 23.625 58.2014 23.625 58.3195V65.7667C23.625 66.6444 23.1864 67.464 22.4561 67.9508L20.874 69.0055C20.3571 69.3502 19.6586 69.2105 19.3139 68.6935C18.9693 68.1765 19.109 67.4781 19.626 67.1334L21.208 66.0787C21.3123 66.0092 21.375 65.8921 21.375 65.7667V58.3195C21.375 57.4932 21.764 56.7152 22.425 56.2195L23.3079 55.5573C21.4507 51.5369 20.254 46.6997 19.951 41.4595L18.5241 42.8863C18.4481 42.9624 18.4083 43.0675 18.415 43.1749L19.0976 54.0962C19.1265 54.5582 19.0327 55.0197 18.8256 55.4338L17.5062 58.0726C17.2284 58.6283 16.5526 58.8536 15.9969 58.5757C15.4412 58.2978 15.2159 57.6221 15.4938 57.0663L16.8131 54.4276C16.8427 54.3685 16.8561 54.3025 16.852 54.2365L16.1694 43.3152C16.1224 42.5635 16.4006 41.8279 16.9331 41.2953L19.8774 38.3511C19.9 36.1247 20.0832 33.9602 20.4097 31.8869C19.7884 31.1659 19.5632 30.1044 20.0929 29.1253C20.4198 28.521 20.7891 27.9379 21.197 27.3784L20.4573 26.85C19.5537 26.2046 19.154 25.0605 19.459 23.9928L22.0754 14.8355C22.0907 14.782 22.0939 14.7258 22.0847 14.6709L21.3903 10.5044C21.2882 9.89154 21.7022 9.31191 22.3151 9.20977C22.9279 9.10763 23.5076 9.52165 23.6097 10.1345L24.3041 14.301C24.3682 14.6853 24.3459 15.079 24.2388 15.4537L21.6224 24.611C21.5789 24.7635 21.636 24.9269 21.7651 25.0191L22.65 25.6512C24.4025 23.8333 26.6078 22.3528 29.1092 21.3229C28.956 20.6793 28.875 20.0083 28.875 19.3195C28.875 16.7903 29.9646 14.5153 31.6966 12.939C31.3717 11.2158 31.6524 9.19828 32.9577 6.9375C33.2683 6.39943 33.9564 6.21507 34.4945 6.52573ZM31.2483 20.5745C33.2098 20.0035 35.3137 19.6945 37.5 19.6945C39.6863 19.6945 41.7902 20.0035 43.7517 20.5745C43.8325 20.1693 43.875 19.7497 43.875 19.3195C43.875 17.2855 42.9237 15.4744 41.4373 14.3053C40.3531 13.4525 38.9874 12.9445 37.5 12.9445C36.0462 12.9445 34.7089 13.4298 33.6369 14.2478C32.108 15.4144 31.125 17.2519 31.125 19.3195C31.125 19.7497 31.1675 20.1693 31.2483 20.5745ZM22.5323 32.909C22.266 34.8067 22.125 36.7852 22.125 38.8195C22.125 45.1471 23.4888 50.9198 25.7284 55.3999C28.4205 60.7853 32.2565 64.1094 36.375 64.6243V36.4527L32.625 35.4927V50.8195C32.625 51.4408 32.1213 51.9445 31.5 51.9445C30.8787 51.9445 30.375 51.4408 30.375 50.8195V34.9167L26.625 33.9567V40.3195C26.625 40.9408 26.1213 41.4445 25.5 41.4445C24.8787 41.4445 24.375 40.9408 24.375 40.3195V33.3807L22.5323 32.909ZM38.625 36.4527V64.6243C42.7436 64.1094 46.5795 60.7853 49.2717 55.3999C51.5112 50.9198 52.875 45.1471 52.875 38.8195C52.875 36.7852 52.734 34.8067 52.4677 32.909L50.625 33.3807V40.3195C50.625 40.9408 50.1213 41.4445 49.5 41.4445C48.8787 41.4445 48.375 40.9408 48.375 40.3195V33.9567L44.625 34.9167V50.8195C44.625 51.4408 44.1213 51.9445 43.5 51.9445C42.8787 51.9445 42.375 51.4408 42.375 50.8195V35.4927L38.625 36.4527ZM37.5 21.9445C35.1409 21.9445 32.8995 22.3429 30.8667 23.0596C27.9374 24.0922 25.4524 25.7811 23.667 27.8778C23.0474 28.6054 22.5125 29.3814 22.0718 30.196C22.0451 30.2453 22.0442 30.2843 22.0578 30.3265C22.0744 30.3781 22.1174 30.4405 22.1921 30.4845C22.2199 30.5009 22.2523 30.5148 22.2896 30.5243L37.407 34.3944C37.468 34.41 37.532 34.41 37.593 34.3944L52.7104 30.5243C52.7477 30.5148 52.7801 30.5009 52.8079 30.4845C52.8826 30.4405 52.9256 30.3781 52.9422 30.3265C52.9558 30.2843 52.9549 30.2453 52.9282 30.196C52.4875 29.3814 51.9526 28.6054 51.333 27.8778C49.5476 25.7811 47.0626 24.0922 44.1333 23.0596C42.1005 22.3429 39.8591 21.9445 37.5 21.9445Z" fill="#DBE1C9"/>
</svg>
