<svg width="50" height="50" viewBox="0 0 50 50" fill="none" xmlns="http://www.w3.org/2000/svg">
<path fill-rule="evenodd" clip-rule="evenodd" d="M28.6552 9.89025C28.9179 8.76643 28.7768 7.41713 27.8838 5.87036L27.0177 6.37036C27.6715 7.50272 27.8367 8.45419 27.7533 9.23783C26.9435 8.76869 26.0027 8.5 25 8.5C24.0254 8.5 23.1092 8.75388 22.3148 9.199C22.241 8.42329 22.4111 7.48453 23.0543 6.37036L22.1883 5.87036C21.3096 7.39236 21.1586 8.72362 21.4049 9.83756C20.239 10.8454 19.5 12.3365 19.5 14C19.5 14.5406 19.5781 15.0636 19.7239 15.558C14.3105 17.819 10.5 23.445 10.5 30C10.5 36.8057 14.6077 42.6104 20.3524 44.6867C21.8117 45.2141 23.375 45.5 25 45.5C26.625 45.5 28.1883 45.2141 29.6476 44.6867C35.3923 42.6104 39.5 36.8057 39.5 30C39.5 23.445 35.6895 17.819 30.2761 15.558C30.4219 15.0636 30.5 14.5406 30.5 14C30.5 12.3653 29.7863 10.897 28.6552 9.89025ZM29.3369 15.2052C29.4431 14.8221 29.5 14.418 29.5 14C29.5 12.5641 28.828 11.2855 27.7794 10.4607C27.0141 9.85876 26.0497 9.5 25 9.5C23.9741 9.5 23.0296 9.8427 22.2729 10.4201C21.1944 11.2431 20.5 12.5404 20.5 14C20.5 14.418 20.5569 14.8221 20.6631 15.2052C22.0327 14.747 23.4897 14.5 25 14.5C26.5103 14.5 27.9673 14.747 29.3369 15.2052ZM24.5 15.5098C23.1121 15.564 21.7782 15.8432 20.5284 16.3143C15.2857 18.2907 11.5 23.6588 11.5 30C11.5 36.26 15.1891 41.5712 20.3272 43.6079L24.5 37.3486V15.5098ZM25.5 15.5098V37.3486L29.6728 43.6079C34.8109 41.5712 38.5 36.26 38.5 30C38.5 23.6588 34.7143 18.2907 29.4716 16.3143C28.2218 15.8432 26.8879 15.564 25.5 15.5098ZM28.6985 43.9492L25 38.4014L21.3015 43.9492C22.4766 44.3079 23.7171 44.5 25 44.5C26.2829 44.5 27.5234 44.3079 28.6985 43.9492ZM17.5 24C17.5 22.6193 18.6193 21.5 20 21.5C21.3807 21.5 22.5 22.6193 22.5 24C22.5 25.3807 21.3807 26.5 20 26.5C18.6193 26.5 17.5 25.3807 17.5 24ZM20 22.5C19.1716 22.5 18.5 23.1716 18.5 24C18.5 24.8284 19.1716 25.5 20 25.5C20.8284 25.5 21.5 24.8284 21.5 24C21.5 23.1716 20.8284 22.5 20 22.5ZM30 22.5C29.1716 22.5 28.5 23.1716 28.5 24C28.5 24.8284 29.1716 25.5 30 25.5C30.8284 25.5 31.5 24.8284 31.5 24C31.5 23.1716 30.8284 22.5 30 22.5ZM27.5 24C27.5 22.6193 28.6193 21.5 30 21.5C31.3807 21.5 32.5 22.6193 32.5 24C32.5 25.3807 31.3807 26.5 30 26.5C28.6193 26.5 27.5 25.3807 27.5 24ZM14.5 33C14.5 31.067 16.067 29.5 18 29.5C19.933 29.5 21.5 31.067 21.5 33C21.5 34.933 19.933 36.5 18 36.5C16.067 36.5 14.5 34.933 14.5 33ZM18 30.5C16.6193 30.5 15.5 31.6193 15.5 33C15.5 34.3807 16.6193 35.5 18 35.5C19.3807 35.5 20.5 34.3807 20.5 33C20.5 31.6193 19.3807 30.5 18 30.5ZM32 30.5C30.6193 30.5 29.5 31.6193 29.5 33C29.5 34.3807 30.6193 35.5 32 35.5C33.3807 35.5 34.5 34.3807 34.5 33C34.5 31.6193 33.3807 30.5 32 30.5ZM28.5 33C28.5 31.067 30.067 29.5 32 29.5C33.933 29.5 35.5 31.067 35.5 33C35.5 34.933 33.933 36.5 32 36.5C30.067 36.5 28.5 34.933 28.5 33Z" fill="#DBE1C9"/>
</svg>
