<svg width="50" height="50" viewBox="0 0 50 50" fill="none" xmlns="http://www.w3.org/2000/svg">
<path fill-rule="evenodd" clip-rule="evenodd" d="M22.8713 5.68735C23.1105 5.82542 23.1924 6.13121 23.0543 6.37036C22.4111 7.48453 22.241 8.42329 22.3148 9.199C23.1092 8.75388 24.0254 8.5 25 8.5C26.0027 8.5 26.9435 8.76869 27.7533 9.23783C27.8367 8.45419 27.6715 7.50272 27.0177 6.37036C26.8797 6.13121 26.9616 5.82542 27.2007 5.68735C27.4399 5.54928 27.7457 5.63121 27.8838 5.87036C28.7768 7.41713 28.9179 8.76643 28.6552 9.89025C29.7863 10.897 30.5 12.3653 30.5 14C30.5 14.5142 30.4293 15.0126 30.2969 15.4856C32.0903 16.1907 33.657 17.245 34.868 18.5512L35.6353 18.0032C35.8074 17.8803 35.8835 17.6623 35.8254 17.459L34.0812 11.3541C34.02 11.14 34.0073 10.915 34.0439 10.6954L34.5068 7.9178C34.5522 7.64541 34.8098 7.46141 35.0822 7.5068C35.3546 7.5522 35.5386 7.80981 35.4932 8.0822L35.0303 10.8598C35.0181 10.933 35.0223 11.008 35.0427 11.0794L36.7869 17.1843C36.9613 17.7944 36.7328 18.4481 36.2165 18.8169L35.5154 19.3177C35.8416 19.7431 36.1327 20.1902 36.3849 20.6562C36.7028 21.2438 36.5388 21.8892 36.1275 22.298C36.3603 23.7356 36.4888 25.2413 36.4993 26.7922L38.5345 28.8274C38.8388 29.1317 38.9977 29.552 38.9709 29.9816L38.5158 37.2624C38.5103 37.3505 38.5282 37.4384 38.5676 37.5172L39.4472 39.2764C39.5707 39.5234 39.4706 39.8237 39.2236 39.9472C38.9766 40.0707 38.6763 39.9706 38.5528 39.7236L37.6732 37.9645C37.5549 37.7278 37.5013 37.4641 37.5178 37.2001L37.9728 29.9192C37.9818 29.776 37.9288 29.6359 37.8274 29.5345L36.477 28.1841C36.3301 31.9464 35.4882 35.411 34.1488 38.2366L34.9 38.8C35.2777 39.0833 35.5 39.5279 35.5 40V44.9648C35.5 45.132 35.5836 45.2881 35.7227 45.3808L36.7774 46.084C37.0071 46.2372 37.0692 46.5476 36.916 46.7774C36.7629 47.0071 36.4524 47.0692 36.2227 46.916L35.168 46.2129C34.7507 45.9347 34.5 45.4663 34.5 44.9648V40C34.5 39.8426 34.4259 39.6944 34.3 39.6L33.6904 39.1428C31.6286 42.9642 28.5451 45.5 25 45.5C21.4549 45.5 18.3714 42.9642 16.3096 39.1428L15.7 39.6C15.5741 39.6944 15.5 39.8426 15.5 40V44.9648C15.5 45.4663 15.2494 45.9347 14.8321 46.2129L13.7774 46.916C13.5476 47.0692 13.2372 47.0071 13.084 46.7774C12.9308 46.5476 12.9929 46.2372 13.2227 46.084L14.2774 45.3808C14.4165 45.2881 14.5 45.132 14.5 44.9648V40C14.5 39.5279 14.7223 39.0833 15.1 38.8L15.8512 38.2366C14.5118 35.411 13.6699 31.9464 13.523 28.1841L12.1727 29.5345C12.0712 29.6359 12.0182 29.776 12.0272 29.9192L12.4822 37.2001C12.4987 37.4641 12.4451 37.7278 12.3268 37.9645L11.4472 39.7236C11.3237 39.9706 11.0234 40.0707 10.7764 39.9472C10.5294 39.8237 10.4293 39.5234 10.5528 39.2764L11.4324 37.5172C11.4718 37.4384 11.4897 37.3505 11.4842 37.2624L11.0291 29.9816C11.0023 29.552 11.1612 29.1317 11.4655 28.8274L13.5007 26.7922C13.5113 25.2413 13.6397 23.7356 13.8725 22.298C13.4612 21.8892 13.2972 21.2438 13.6151 20.6562C13.8673 20.1902 14.1584 19.7431 14.4846 19.3177L13.7835 18.8169C13.2672 18.4481 13.0387 17.7944 13.2131 17.1843L14.9573 11.0794C14.9777 11.008 14.9819 10.933 14.9697 10.8598L14.5068 8.0822C14.4614 7.80981 14.6454 7.5522 14.9178 7.5068C15.1902 7.46141 15.4478 7.64542 15.4932 7.9178L15.9561 10.6954C15.9927 10.915 15.98 11.14 15.9188 11.3541L14.1746 17.459C14.1165 17.6623 14.1926 17.8803 14.3647 18.0032L15.132 18.5512C16.343 17.245 17.9097 16.1907 19.7031 15.4856C19.5707 15.0126 19.5 14.5142 19.5 14C19.5 12.3365 20.239 10.8454 21.4049 9.83756C21.1586 8.72362 21.3096 7.39236 22.1883 5.87036C22.3264 5.63121 22.6322 5.54928 22.8713 5.68735ZM20.6489 15.153C22.0052 14.7304 23.4714 14.5 25 14.5C26.5286 14.5 27.9948 14.7304 29.3511 15.153C29.4482 14.7854 29.5 14.399 29.5 14C29.5 12.5641 28.8281 11.2855 27.7794 10.4607C27.0141 9.85876 26.0497 9.5 25 9.5C23.9741 9.5 23.0296 9.8427 22.2729 10.4201C21.1944 11.2431 20.5 12.5404 20.5 14C20.5 14.399 20.5518 14.7854 20.6489 15.153ZM14.8142 22.7485C14.609 24.1093 14.5 25.5333 14.5 27C14.5 31.2526 15.4163 35.1401 16.9286 38.1654C18.8012 41.9114 21.53 44.2438 24.5 44.4801V25.2281L21.5 24.4601V35C21.5 35.2761 21.2761 35.5 21 35.5C20.7239 35.5 20.5 35.2761 20.5 35V24.2041L17.5 23.4361V28C17.5 28.2761 17.2761 28.5 17 28.5C16.7239 28.5 16.5 28.2761 16.5 28V23.1801L14.8142 22.7485ZM25.5 25.2281V44.4801C28.47 44.2438 31.1988 41.9114 33.0714 38.1654C34.5837 35.1401 35.5 31.2526 35.5 27C35.5 25.5333 35.391 24.1093 35.1858 22.7485L33.5 23.1801V28C33.5 28.2761 33.2761 28.5 33 28.5C32.7239 28.5 32.5 28.2761 32.5 28V23.4361L29.5 24.2041V35C29.5 35.2761 29.2761 35.5 29 35.5C28.7239 35.5 28.5 35.2761 28.5 35V24.4601L25.5 25.2281ZM25 15.5C23.3992 15.5 21.8768 15.7704 20.4947 16.2576C18.5037 16.9595 16.8089 18.1094 15.5877 19.5434C15.1638 20.0412 14.7971 20.573 14.4947 21.132C14.4003 21.3065 14.4579 21.5352 14.6679 21.6588C14.7066 21.6816 14.7499 21.6999 14.7978 21.7121L24.876 24.2921C24.9574 24.313 25.0426 24.313 25.124 24.2921L35.2022 21.7121C35.2501 21.6999 35.2934 21.6816 35.3321 21.6588C35.5421 21.5352 35.5997 21.3065 35.5053 21.132C35.2029 20.573 34.8362 20.0412 34.4123 19.5434C33.1911 18.1094 31.4963 16.9595 29.5053 16.2576C28.1232 15.7704 26.6008 15.5 25 15.5Z" fill="#DBE1C9"/>
</svg>
