<svg width="50" height="50" viewBox="0 0 50 50" fill="none" xmlns="http://www.w3.org/2000/svg">
<path fill-rule="evenodd" clip-rule="evenodd" d="M20.5573 4.79851C20.6686 4.54579 20.9637 4.43112 21.2164 4.5424C22.4867 5.10173 23.3259 5.83533 23.8507 6.64492C24.2518 7.26376 24.4569 7.90803 24.5416 8.51886C24.6928 8.50637 24.8457 8.5 25 8.5C25.1593 8.5 25.3171 8.50679 25.4731 8.5201C25.5576 7.90943 25.7625 7.26529 26.1632 6.64652C26.6878 5.83631 27.5274 5.1021 28.7985 4.5424C29.0512 4.43112 29.3463 4.54579 29.4576 4.79851C29.5689 5.05124 29.4542 5.34633 29.2015 5.45761C28.082 5.95054 27.4062 6.56678 27.0025 7.19007C26.6847 7.68088 26.5227 8.19622 26.4585 8.6956C28.7882 9.33487 30.5 11.4671 30.5 14C30.5 15.528 29.8766 16.9103 28.8715 17.9065C29.5769 18.2295 30.1839 18.7291 30.6363 19.3486L34.8778 14.4544C34.9566 14.3635 35 14.2473 35 14.127V10.8508C35 10.5102 35.1159 10.1797 35.3287 9.91374L37.1096 7.68766C37.2821 7.47203 37.5967 7.43706 37.8123 7.60957C38.028 7.78207 38.0629 8.09672 37.8904 8.31235L36.1096 10.5384C36.0386 10.6271 36 10.7372 36 10.8508V14.127C36 14.4879 35.8699 14.8366 35.6335 15.1094L31.1571 20.2744C31.3781 20.8063 31.5 21.3894 31.5 22V23.7399L30.4041 24.3874L30.3149 25.6624L34.3364 27.3859C34.6841 27.5349 34.9626 27.8098 35.1162 28.1554L36.7778 31.8939C36.8348 32.0223 36.9433 32.1207 37.0766 32.1651L39.6581 33.0257C39.9201 33.113 40.0617 33.3961 39.9743 33.6581C39.887 33.9201 39.6039 34.0617 39.3419 33.9743L36.7603 33.1138C36.3605 32.9805 36.0351 32.6852 35.864 32.3L34.2024 28.5616C34.1512 28.4463 34.0584 28.3547 33.9425 28.305L30.2409 26.7187L29.8153 32.799L32.0787 34.7795C32.4042 35.0643 32.5909 35.4758 32.5909 35.9083V42.5511C32.5909 42.7195 32.6757 42.8767 32.8166 42.9691L35.2743 44.582C35.5052 44.7335 35.5695 45.0435 35.418 45.2743C35.2665 45.5052 34.9565 45.5695 34.7257 45.418L32.2679 43.8051C31.8454 43.5279 31.5909 43.0564 31.5909 42.5511V35.9083C31.5909 35.7641 31.5287 35.627 31.4202 35.532L29.7276 34.0511L29.4931 37.4013L26.387 44.9447C25.877 46.1832 24.123 46.1832 23.613 44.9447L20.5069 37.4013L20.3012 34.4633L19.0798 35.532C18.9713 35.627 18.9091 35.7641 18.9091 35.9083V42.5511C18.9091 43.0564 18.6546 43.5279 18.2321 43.8051L15.7743 45.418C15.5435 45.5695 15.2335 45.5052 15.082 45.2743C14.9305 45.0435 14.9948 44.7335 15.2257 44.582L17.6834 42.9691C17.8243 42.8767 17.9091 42.7195 17.9091 42.5511V35.9083C17.9091 35.4758 18.0958 35.0643 18.4213 34.7795L20.2136 33.2113L19.7736 26.9267L16.5575 28.305C16.4416 28.3547 16.3488 28.4463 16.2976 28.5616L14.636 32.3C14.4649 32.6852 14.1395 32.9805 13.7397 33.1138L11.1581 33.9743C10.8961 34.0617 10.613 33.9201 10.5257 33.6581C10.4383 33.3961 10.5799 33.113 10.8419 33.0257L13.4234 32.1651C13.5567 32.1207 13.6652 32.0223 13.7222 31.8939L15.3838 28.1554C15.5374 27.8098 15.8159 27.5349 16.1636 27.3859L19.6997 25.8704L19.5959 24.3874L18.5 23.7399V22C18.5 21.2425 18.6875 20.5277 19.0188 19.9006L14.8665 15.1094C14.6301 14.8366 14.5 14.4879 14.5 14.127V10.8508C14.5 10.7372 14.4614 10.6271 14.3904 10.5384L12.6096 8.31235C12.4371 8.09672 12.472 7.78207 12.6877 7.60957C12.9033 7.43706 13.2179 7.47203 13.3904 7.68766L15.1713 9.91374C15.3841 10.1797 15.5 10.5102 15.5 10.8508V14.127C15.5 14.2473 15.5434 14.3635 15.6222 14.4544L19.6034 19.0482C20.0218 18.5671 20.541 18.1755 21.1285 17.9065C20.1234 16.9103 19.5 15.528 19.5 14C19.5 11.4619 21.2188 9.32609 23.5559 8.69168C23.4913 8.1931 23.3291 7.67873 23.0115 7.18882C22.6078 6.56597 21.9322 5.95022 20.8134 5.45761C20.5607 5.34633 20.446 5.05124 20.5573 4.79851ZM22.0366 18.6341C21.2096 18.8704 20.5065 19.404 20.0516 20.1131C19.7025 20.6573 19.5 21.3043 19.5 22V23.1692L25 26.4192L30.5 23.1692V22C30.5 21.4293 30.3638 20.8918 30.1225 20.417C29.6858 19.5576 28.9051 18.9031 27.9634 18.6341C27.1079 19.1822 26.0904 19.5 25 19.5C23.9096 19.5 22.8921 19.1822 22.0366 18.6341ZM24.5 27.2853L20.6416 25.0054L21.4931 37.1701L24.5 44.4725V27.2853ZM25.5 44.4725L28.5069 37.1701L29.3584 25.0054L25.5 27.2853V44.4725ZM25 9.5C24.7191 9.5 24.4446 9.52569 24.1786 9.57471C22.0856 9.96046 20.5 11.7956 20.5 14C20.5 15.5238 21.2569 16.8708 22.4174 17.6857C23.1483 18.1988 24.0382 18.5 25 18.5C25.9618 18.5 26.8517 18.1988 27.5826 17.6857C28.7431 16.8708 29.5 15.5238 29.5 14C29.5 11.8003 27.9212 9.96825 25.8347 9.57718C25.5646 9.52655 25.2856 9.5 25 9.5Z" fill="#020A10"/>
</svg>
