<svg width="50" height="50" viewBox="0 0 50 50" fill="none" xmlns="http://www.w3.org/2000/svg">
<path fill-rule="evenodd" clip-rule="evenodd" d="M15.421 5.50628C15.6937 5.46265 15.9501 5.64833 15.9937 5.921L17.9126 17.9141C17.9381 18.0732 18.0386 18.2103 18.1827 18.2823L20.7169 19.5494C21.0392 19.1498 21.4164 18.7962 21.837 18.5C20.4241 17.505 19.5 15.8608 19.5 14C19.5 12.3365 20.239 10.8454 21.4049 9.83756C21.1586 8.72362 21.3096 7.39236 22.1883 5.87036C22.3264 5.63121 22.6322 5.54928 22.8713 5.68735C23.1105 5.82542 23.1924 6.13121 23.0543 6.37036C22.4111 7.48453 22.241 8.42329 22.3148 9.199C23.1092 8.75388 24.0254 8.5 25 8.5C26.0027 8.5 26.9435 8.76869 27.7533 9.23783C27.8367 8.45418 27.6715 7.50272 27.0177 6.37036C26.8797 6.13121 26.9616 5.82542 27.2007 5.68735C27.4399 5.54928 27.7457 5.63121 27.8838 5.87036C28.7768 7.41712 28.9179 8.76643 28.6552 9.89024C29.7863 10.897 30.5 12.3653 30.5 14C30.5 15.8608 29.5759 17.505 28.163 18.5C28.5837 18.7962 28.9608 19.1498 29.2831 19.5494L31.8173 18.2823C31.9614 18.2103 32.0619 18.0732 32.0874 17.9141L34.0063 5.921C34.0499 5.64833 34.3063 5.46265 34.579 5.50628C34.8517 5.54991 35.0373 5.80632 34.9937 6.07899L33.0748 18.0721C32.9985 18.5494 32.6968 18.9606 32.2645 19.1768L29.8414 20.3883C30.0976 20.8622 30.2863 21.3781 30.3945 21.9229L35.9296 20.6206C36.074 20.5866 36.1959 20.4902 36.2623 20.3575L40.5528 11.7764C40.6763 11.5294 40.9766 11.4293 41.2236 11.5528C41.4706 11.6763 41.5707 11.9766 41.4472 12.2236L37.1567 20.8047C36.9576 21.2029 36.5919 21.492 36.1586 21.594L30.4995 22.9255C30.4998 22.9503 30.5 22.9751 30.5 23C30.5 23.5984 30.4043 24.1751 30.2271 24.7153L33.6427 25.8538C34.1248 26.0146 34.4928 26.4085 34.6203 26.9004L37.984 39.8745C38.0533 40.1418 37.8928 40.4147 37.6255 40.484C37.3582 40.5533 37.0853 40.3928 37.016 40.1255L33.6524 27.1514C33.6098 26.9874 33.4872 26.8561 33.3265 26.8025L29.828 25.6364C29.5686 26.1105 29.2416 26.542 28.8599 26.9181C31.0695 28.6836 32.5 31.895 32.5 35.5C32.5 38.219 31.6886 40.7005 30.3523 42.5141C29.0161 44.3275 27.1295 45.5 25 45.5C22.8705 45.5 20.9839 44.3275 19.6477 42.5141C18.3114 40.7005 17.5 38.219 17.5 35.5C17.5 31.895 18.9305 28.6836 21.1401 26.9181C20.7584 26.542 20.4314 26.1105 20.172 25.6364L16.6735 26.8025C16.5128 26.8561 16.3902 26.9874 16.3477 27.1514L12.984 40.1255C12.9147 40.3928 12.6418 40.5533 12.3745 40.484C12.1072 40.4147 11.9467 40.1418 12.016 39.8745L15.3797 26.9004C15.5072 26.4085 15.8752 26.0146 16.3573 25.8538L19.7729 24.7153C19.5957 24.1751 19.5 23.5984 19.5 23C19.5 22.9751 19.5002 22.9503 19.5005 22.9255L13.8414 21.594C13.4081 21.492 13.0424 21.2028 12.8433 20.8047L8.55279 12.2236C8.42929 11.9766 8.52941 11.6763 8.7764 11.5528C9.02339 11.4293 9.32372 11.5294 9.44722 11.7764L13.7378 20.3575C13.8041 20.4902 13.926 20.5866 14.0704 20.6206L19.6055 21.9229C19.7137 21.3781 19.9024 20.8622 20.1586 20.3883L17.7355 19.1768C17.3032 18.9606 17.0015 18.5494 16.9252 18.0721L15.0063 6.07899C14.9627 5.80632 15.1483 5.54991 15.421 5.50628ZM21.9352 27.5676C19.9221 29.0679 18.5 32.0268 18.5 35.5C18.5 38.0277 19.2556 40.2962 20.4528 41.9209C21.6501 43.5458 23.2635 44.5 25 44.5C26.7365 44.5 28.3499 43.5458 29.5472 41.9209C30.7444 40.2962 31.5 38.0277 31.5 35.5C31.5 32.0268 30.0779 29.0679 28.0648 27.5676C27.189 28.1563 26.1341 28.5 25 28.5C23.8659 28.5 22.811 28.1563 21.9352 27.5676ZM27.1685 19.0559C26.5026 19.3418 25.7692 19.5 25 19.5C24.2308 19.5 23.4974 19.3418 22.8315 19.0559C22.2108 19.398 21.679 19.8827 21.2808 20.4659C20.862 21.0792 20.5913 21.8008 20.5193 22.5804C20.5065 22.7184 20.5 22.8584 20.5 23C20.5 23.6494 20.6373 24.2655 20.8839 24.8218C21.188 25.5077 21.6589 26.104 22.2455 26.5588C23.0068 27.149 23.9617 27.5 25 27.5C26.0383 27.5 26.9932 27.149 27.7545 26.5588C28.3411 26.104 28.812 25.5077 29.1161 24.8218C29.3627 24.2655 29.5 23.6494 29.5 23C29.5 22.8584 29.4935 22.7184 29.4807 22.5804C29.4088 21.8008 29.138 21.0792 28.7192 20.4659C28.321 19.8827 27.7892 19.398 27.1685 19.0559ZM25 9.5C23.9741 9.5 23.0296 9.8427 22.2729 10.4201C21.1944 11.2431 20.5 12.5404 20.5 14C20.5 15.7804 21.534 17.3204 23.0364 18.0503C23.6292 18.3382 24.295 18.5 25 18.5C25.705 18.5 26.3708 18.3382 26.9636 18.0503C28.466 17.3204 29.5 15.7804 29.5 14C29.5 12.5641 28.8281 11.2855 27.7794 10.4607C27.0141 9.85876 26.0497 9.5 25 9.5Z" fill="#DBE1C9"/>
</svg>
