<svg width="50" height="50" viewBox="0 0 50 50" fill="none" xmlns="http://www.w3.org/2000/svg">
<path fill-rule="evenodd" clip-rule="evenodd" d="M9.62295 5.73342C9.62295 5.45728 9.84681 5.23342 10.123 5.23342C17.4791 5.23342 20.9995 7.91456 22.5681 9.83879C23.3542 9.61668 24.1675 9.5 25 9.5C25.7997 9.5 26.5818 9.60768 27.3391 9.8131C28.9184 7.89034 32.4404 5.23342 39.7632 5.23342C40.0394 5.23342 40.2632 5.45728 40.2632 5.73342C40.2632 6.00956 40.0394 6.23342 39.7632 6.23342C33.124 6.23342 29.8701 8.48826 28.3634 10.1559C29.7007 10.6901 30.9394 11.5321 32.0436 12.6162C32.3644 11.9854 32.5591 11.1487 32.4919 10.03C32.4753 9.75435 32.6854 9.51747 32.961 9.5009C33.2366 9.48434 33.4735 9.69436 33.4901 9.97001C33.5771 11.418 33.2792 12.5314 32.7629 13.3781C33.3646 14.0644 33.9198 14.8275 34.4219 15.656C34.7058 16.1243 34.9728 16.6137 35.2217 17.1222C35.913 16.7312 36.5977 16.0339 37.135 14.815C37.2464 14.5624 37.5415 14.4478 37.7942 14.5592C38.0469 14.6706 38.1614 14.9657 38.05 15.2184C37.4167 16.6552 36.5625 17.5347 35.6399 18.0338C35.9122 18.6685 36.1578 19.3292 36.3744 20.0125C36.643 20.8596 36.8673 21.7417 37.0431 22.6525C37.8406 22.5562 38.7515 22.1676 39.7222 21.2198C39.9198 21.0269 40.2364 21.0307 40.4293 21.2283C40.6222 21.4258 40.6184 21.7424 40.4209 21.9353C39.3255 23.0048 38.2329 23.5045 37.2128 23.6391C37.3087 24.2732 37.3814 24.9198 37.4297 25.5767C37.4762 26.2087 37.5 26.8504 37.5 27.5C37.5 27.8275 37.4939 28.153 37.482 28.4763C38.4268 28.6593 39.4234 29.1624 40.4209 30.1362C40.6184 30.3291 40.6222 30.6457 40.4293 30.8433C40.2364 31.0409 39.9198 31.0446 39.7222 30.8517C38.9013 30.0502 38.1242 29.6498 37.425 29.4866C37.3548 30.4103 37.2363 31.3132 37.073 32.1898C36.8274 33.5085 36.4805 34.7683 36.0446 35.9503C36.9107 36.5652 37.6572 37.5574 38.1018 39.0889C38.1788 39.3541 38.0262 39.6315 37.761 39.7084C37.4958 39.7854 37.2184 39.6328 37.1414 39.3677C36.7919 38.1635 36.2517 37.4003 35.6616 36.9155C35.3826 37.5706 35.0751 38.1985 34.7414 38.7953C33.9682 40.1781 33.0529 41.3971 32.023 42.4039C32.377 43.1797 32.5623 44.1395 32.4925 45.3198C32.4761 45.5954 32.2394 45.8057 31.9638 45.7893C31.6881 45.773 31.4779 45.5363 31.4942 45.2607C31.5462 44.3828 31.4368 43.6799 31.2336 43.1151C29.4133 44.6217 27.2858 45.5 25 45.5C22.7148 45.5 20.5879 44.6222 18.768 43.1165C18.5651 43.681 18.4559 44.3834 18.5079 45.2607C18.5242 45.5363 18.314 45.773 18.0383 45.7893C17.7626 45.8057 17.5259 45.5954 17.5096 45.3198C17.4398 44.1402 17.6249 43.1808 17.9784 42.4053C16.9479 41.3982 16.0321 40.1787 15.2586 38.7953C14.9251 38.1988 14.6178 37.5714 14.339 36.9168C13.7495 37.4016 13.2099 38.1645 12.8607 39.3677C12.7837 39.6328 12.5063 39.7854 12.2411 39.7084C11.9759 39.6315 11.8233 39.3541 11.9003 39.0889C12.3446 37.5584 13.0904 36.5665 13.9559 35.9515C13.5197 34.7691 13.1727 33.5089 12.927 32.1898C12.7638 31.3133 12.6452 30.4106 12.575 29.487C11.8764 29.6506 11.1 30.0509 10.2798 30.8517C10.0822 31.0446 9.76568 31.0409 9.57276 30.8433C9.37985 30.6457 9.38364 30.3291 9.58122 30.1362C10.5779 29.1631 11.5738 28.6601 12.518 28.4767C12.5061 28.1533 12.5 27.8277 12.5 27.5C12.5 26.8504 12.5238 26.2087 12.5703 25.5767C12.6186 24.9197 12.6913 24.273 12.7873 23.6388C11.7677 23.5039 10.6758 23.004 9.58122 21.9353C9.38364 21.7424 9.37985 21.4258 9.57276 21.2283C9.76568 21.0307 10.0822 21.0269 10.2798 21.2198C11.2498 22.1668 12.16 22.5556 12.9569 22.6523C13.1328 21.7415 13.357 20.8595 13.6256 20.0125C13.8423 19.3289 14.088 18.6679 14.3605 18.0328C13.4385 17.5336 12.585 16.6543 11.952 15.2184C11.8407 14.9657 11.9552 14.6706 12.2079 14.5592C12.4606 14.4478 12.7557 14.5624 12.8671 14.815C13.4039 16.0329 14.0881 16.7301 14.7787 17.1213C15.0275 16.6131 15.2944 16.124 15.5781 15.656C16.0805 14.827 16.6361 14.0634 17.2383 13.3767C16.7225 12.5301 16.425 11.4171 16.512 9.97001C16.5285 9.69436 16.7654 9.48434 17.0411 9.5009C17.3167 9.51747 17.5267 9.75435 17.5102 10.03C17.443 11.1479 17.6374 11.9842 17.9578 12.6149C19.0386 11.554 20.2483 10.7251 21.5532 10.1897C20.0597 8.51852 16.8066 6.23342 10.123 6.23342C9.84681 6.23342 9.62295 6.00956 9.62295 5.73342ZM25 10.5C24.1561 10.5 23.3331 10.6351 22.5396 10.8922C20.9737 11.3997 19.5128 12.386 18.2376 13.7616C17.6936 14.3484 17.1843 15.0052 16.7162 15.724C18.9164 16.8235 21.8118 17.5 25 17.5C28.1882 17.5 31.0836 16.8235 33.2838 15.724C32.816 15.0056 32.3071 14.3493 31.7635 13.7627C30.4646 12.3612 28.973 11.3636 27.3738 10.8647C26.6071 10.6255 25.8133 10.5 25 10.5ZM33.8055 16.5809C31.4356 17.7828 28.3533 18.5 25 18.5C21.6467 18.5 18.5644 17.7828 16.1945 16.5809C15.9372 17.0332 15.6954 17.5058 15.4702 17.997C15.1974 18.5924 14.9493 19.215 14.7281 19.8615C17.6119 20.8898 21.1577 21.5 25 21.5C28.8423 21.5 32.3881 20.8898 35.2719 19.8615C35.0508 19.2152 34.8028 18.5929 34.5301 17.9977C34.3048 17.5062 34.0629 17.0334 33.8055 16.5809ZM35.5733 20.8157C32.5749 21.8797 28.9266 22.5 25 22.5C21.0733 22.5 17.4251 21.8797 14.4267 20.8157C14.198 21.6025 14.0083 22.4201 13.8614 23.2634C13.7455 23.9287 13.6563 24.6098 13.5954 25.3041C16.6556 26.6683 20.6352 27.5 25 27.5C29.3648 27.5 33.3444 26.6683 36.4046 25.3041C36.3437 24.6098 36.2545 23.9287 36.1386 23.2634C35.9917 22.4201 35.802 21.6025 35.5733 20.8157ZM36.4746 26.3642C33.3176 27.7056 29.3266 28.5 25 28.5C20.6734 28.5 16.6824 27.7056 13.5254 26.3642C13.5085 26.7396 13.5 27.1183 13.5 27.5C13.5 27.965 13.5127 28.4256 13.5375 28.881C13.5907 29.8539 13.6994 30.8033 13.859 31.7226C17.1417 32.8524 20.9434 33.5 25 33.5C29.0566 33.5 32.8583 32.8524 36.141 31.7226C36.3006 30.8033 36.4093 29.8538 36.4625 28.8808C36.4873 28.4254 36.5 27.9649 36.5 27.5C36.5 27.1183 36.4915 26.7396 36.4746 26.3642ZM35.9163 32.8516C32.6526 33.9054 28.9374 34.5 25 34.5C21.0625 34.5 17.3474 33.9054 14.0837 32.8516C14.3299 33.9455 14.6493 34.9894 15.0329 35.9709C15.3305 36.7326 15.6667 37.4563 16.0372 38.1365C18.7819 39.0131 21.8124 39.5 25 39.5C28.1876 39.5 31.2181 39.0131 33.9628 38.1365C34.3334 37.456 34.6697 36.732 34.9675 35.97C35.351 34.9887 35.6702 33.9451 35.9163 32.8516ZM33.1971 39.4078C30.6436 40.1144 27.8815 40.5 25 40.5C22.1185 40.5 19.3564 40.1144 16.8029 39.4078C17.4432 40.3702 18.1582 41.218 18.9316 41.9317C20.711 43.5736 22.7919 44.5 25 44.5C27.2086 44.5 29.29 43.5731 31.0697 41.9305C31.8426 41.2171 32.5572 40.3696 33.1971 39.4078Z" fill="#DBE1C9"/>
</svg>
