<svg width="50" height="50" viewBox="0 0 50 50" fill="none" xmlns="http://www.w3.org/2000/svg">
<path fill-rule="evenodd" clip-rule="evenodd" d="M17.103 3.01073C17.3732 3.06762 17.5462 3.33279 17.4893 3.60301L15.5633 12.7513C15.5394 12.865 15.5558 12.9835 15.6097 13.0863L19.4011 20.3245C20.2991 19.6684 21.3168 19.1659 22.4152 18.856C20.6806 17.9308 19.5 16.1032 19.5 14C19.5 12.3365 20.239 10.8454 21.4049 9.83756C21.1586 8.72362 21.3096 7.39236 22.1883 5.87036C22.3264 5.63122 22.6322 5.54928 22.8713 5.68735C23.1105 5.82542 23.1924 6.13122 23.0543 6.37036C22.4111 7.48453 22.241 8.4233 22.3148 9.199C23.1092 8.75389 24.0254 8.5 25 8.5C26.0027 8.5 26.9435 8.7687 27.7533 9.23783C27.8367 8.45419 27.6715 7.50272 27.0177 6.37036C26.8797 6.13122 26.9616 5.82542 27.2007 5.68735C27.4399 5.54928 27.7457 5.63122 27.8838 5.87036C28.7768 7.41713 28.9179 8.76644 28.6552 9.89025C29.7863 10.897 30.5 12.3653 30.5 14C30.5 16.1032 29.3194 17.9307 27.5848 18.856C28.8313 19.2077 29.9739 19.8074 30.9556 20.5982L34.8903 13.0863C34.9442 12.9835 34.9606 12.865 34.9367 12.7513L33.0107 3.60301C32.9538 3.33279 33.1268 3.06762 33.397 3.01073C33.6672 2.95384 33.9324 3.12678 33.9893 3.397L35.9152 12.5453C35.987 12.8863 35.9379 13.2417 35.7762 13.5504L31.7231 21.2881C32.1045 21.6701 32.4536 22.0846 32.7659 22.527L37.0013 18.2916C37.0492 18.2437 37.0868 18.1866 37.112 18.1237L41.0358 8.31431C41.1383 8.05792 41.4293 7.93321 41.6857 8.03576C41.9421 8.13832 42.0668 8.42931 41.9642 8.6857L38.0405 18.4951C37.965 18.6837 37.8521 18.8551 37.7084 18.9987L33.3115 23.3956C34.0576 24.7397 34.4871 26.2837 34.4997 27.9257L38.249 29.3678C38.6587 29.5254 38.9789 29.8545 39.125 30.2685L41.9715 38.3336C42.0634 38.594 41.9268 38.8796 41.6664 38.9715C41.406 39.0634 41.1204 38.9268 41.0285 38.6664L38.182 30.6014C38.1333 30.4634 38.0266 30.3536 37.89 30.3011L34.4502 28.9781C34.3074 30.3741 33.8621 31.681 33.1812 32.8317L35.9521 34.8469C36.28 35.0854 36.4974 35.4465 36.5548 35.8479L37.995 45.9293C38.034 46.2027 37.8441 46.4559 37.5707 46.495C37.2973 46.534 37.0441 46.3441 37.005 46.0707L35.5648 35.9893C35.5457 35.8555 35.4732 35.7352 35.3639 35.6557L32.6268 33.665C30.896 35.9915 28.1243 37.5 25 37.5C21.9815 37.5 19.2919 36.0918 17.5524 33.8983L15.1361 35.6557C15.0268 35.7352 14.9543 35.8555 14.9352 35.9893L13.495 46.0707C13.4559 46.3441 13.2027 46.534 12.9293 46.495C12.6559 46.4559 12.466 46.2027 12.505 45.9293L13.9452 35.8479C14.0026 35.4465 14.22 35.0854 14.5479 34.8469L16.973 33.0832C16.2367 31.9228 15.7449 30.5914 15.5705 29.1625L12.61 30.3011C12.4734 30.3536 12.3667 30.4634 12.318 30.6014L9.47149 38.6664C9.37959 38.9268 9.09399 39.0634 8.83359 38.9715C8.57319 38.8796 8.4366 38.594 8.5285 38.3336L11.375 30.2685C11.5211 29.8545 11.8413 29.5254 12.251 29.3678L15.5007 28.1179C15.5002 28.0786 15.5 28.0393 15.5 28C15.5 26.1995 16.0014 24.5147 16.8722 23.0793L12.7916 18.9987C12.6479 18.8551 12.535 18.6837 12.4595 18.4951L8.53576 8.6857C8.4332 8.42931 8.55791 8.13832 8.8143 8.03576C9.0707 7.93321 9.36168 8.05792 9.46424 8.31431L13.388 18.1237C13.4132 18.1866 13.4508 18.2437 13.4987 18.2916L17.4458 22.2387C17.7952 21.7813 18.1851 21.3565 18.6103 20.9699L14.7238 13.5504C14.5621 13.2417 14.513 12.8863 14.5848 12.5453L16.5107 3.397C16.5676 3.12678 16.8328 2.95384 17.103 3.01073ZM25 19.5C22.9286 19.5 21.0314 20.2403 19.5567 21.4713C18.9299 21.9944 18.3797 22.6061 17.9252 23.2869C17.0249 24.6356 16.5 26.2557 16.5 28C16.5 28.145 16.5036 28.2891 16.5108 28.4322C16.5941 30.0981 17.1568 31.637 18.0642 32.9149C19.6052 35.0854 22.1374 36.5 25 36.5C27.9621 36.5 30.5707 34.9852 32.093 32.6857C32.9388 31.4081 33.4485 29.8891 33.4963 28.2531C33.4988 28.1691 33.5 28.0847 33.5 28C33.5 26.3781 33.0462 24.8637 32.2589 23.5751C31.8472 22.9011 31.3441 22.2888 30.7668 21.7555C29.2512 20.355 27.226 19.5 25 19.5ZM25 9.5C23.9741 9.5 23.0296 9.84271 22.2729 10.4201C21.1944 11.2431 20.5 12.5404 20.5 14C20.5 16.4853 22.5147 18.5 25 18.5C27.4853 18.5 29.5 16.4853 29.5 14C29.5 12.5641 28.828 11.2855 27.7794 10.4607C27.0141 9.85877 26.0497 9.5 25 9.5Z" fill="#DBE1C9"/>
</svg>
