<svg width="50" height="50" viewBox="0 0 50 50" fill="none" xmlns="http://www.w3.org/2000/svg">
<path fill-rule="evenodd" clip-rule="evenodd" d="M19.0219 6.5009C19.0221 6.50089 19.0223 6.50088 19 6.00138C18.9777 5.50188 18.978 5.50187 18.9782 5.50186L18.9788 5.50183L18.9802 5.50177L18.984 5.50162L18.9957 5.50123C19.0053 5.50094 19.0184 5.50062 19.0348 5.50038C19.0676 5.49989 19.1138 5.49973 19.1717 5.5008C19.2874 5.50296 19.4506 5.5101 19.6484 5.52974C20.0426 5.56887 20.5821 5.65843 21.1594 5.862C22.2262 6.23821 23.4421 7.01473 24.0726 8.57794C24.3744 8.52666 24.6842 8.5 25 8.5C25.3158 8.5 25.6256 8.52666 25.9274 8.57794C26.5579 7.01473 27.7738 6.23821 28.8406 5.862C29.4179 5.65843 29.9574 5.56887 30.3516 5.52974C30.5494 5.5101 30.7126 5.50296 30.8283 5.5008C30.8862 5.49973 30.9324 5.49989 30.9652 5.50038C30.9816 5.50062 30.9947 5.50094 31.0043 5.50123L31.016 5.50162L31.0198 5.50177L31.0212 5.50183L31.0218 5.50186C31.022 5.50187 31.0223 5.50188 31 6.00138C30.9777 6.50088 30.9779 6.50089 30.9781 6.5009L30.9742 6.50078L30.9504 6.50027C30.9281 6.49994 30.8931 6.49977 30.847 6.50063C30.7546 6.50235 30.6183 6.50817 30.4504 6.52485C30.113 6.55834 29.6559 6.63487 29.1732 6.80508C28.3223 7.10512 27.4106 7.68597 26.903 8.83827C29.0025 9.61262 30.5 11.6309 30.5 14C30.5 14.9429 30.2626 15.8303 29.8447 16.6058C31.6575 15.7065 33.538 14.7598 35.2556 13.8889C36.8818 13.0644 38.6798 13.0921 40.0851 13.8074C41.5011 14.5283 42.5 15.9418 42.5 17.8098C42.5 18.673 42.1551 19.5775 41.6097 20.2686C41.0656 20.9581 40.2663 21.5 39.3266 21.5L36.916 21.5C37.2748 21.9907 37.5 22.6117 37.5 23.2125C37.5 24.5777 36.7635 25.6139 35.7241 26.1371C34.6955 26.6548 33.3876 26.6649 32.2155 26.0561C31.9799 25.9337 31.7401 25.8093 31.4972 25.6835C31.4862 26.0282 31.4428 26.3894 31.374 26.7614C31.0943 28.2748 30.376 30.0617 29.5495 31.8178C29.0043 32.9763 28.4043 34.1369 27.837 35.2158C27.6947 35.4863 27.5548 35.7512 27.4183 36.0096C26.9898 36.8207 26.5955 37.567 26.2719 38.2182C25.8363 39.0946 25.5633 39.7326 25.4903 40.0979C25.4436 40.3317 25.2384 40.5 25 40.5C24.7616 40.5 24.5564 40.3317 24.5097 40.0979C24.4367 39.7326 24.1637 39.0946 23.7281 38.2182C23.4045 37.567 23.0102 36.8206 22.5817 36.0095C22.4452 35.7512 22.3053 35.4863 22.163 35.2158C21.5957 34.1369 20.9957 32.9763 20.4505 31.8178C19.624 30.0617 18.9057 28.2748 18.626 26.7614C18.5572 26.3894 18.5138 26.0282 18.5028 25.6835C18.2599 25.8093 18.0201 25.9337 17.7845 26.0561C16.6124 26.6649 15.3045 26.6548 14.2759 26.1371C13.2365 25.6139 12.5 24.5777 12.5 23.2125C12.5 22.6117 12.7252 21.9907 13.084 21.5L10.6734 21.5C9.73372 21.5 8.9344 20.9581 8.39025 20.2686C7.84491 19.5775 7.5 18.673 7.5 17.8098C7.5 15.9418 8.49887 14.5283 9.91495 13.8074C11.3202 13.0921 13.1182 13.0644 14.7444 13.8889C16.462 14.7598 18.3425 15.7065 20.1553 16.6058C19.7374 15.8303 19.5 14.9429 19.5 14C19.5 11.6309 20.9975 9.61262 23.097 8.83827C22.5894 7.68597 21.6777 7.10512 20.8268 6.80508C20.3441 6.63487 19.887 6.55834 19.5496 6.52485C19.3817 6.50817 19.2454 6.50235 19.153 6.50063C19.1069 6.49977 19.0719 6.49994 19.0496 6.50027L19.0258 6.50078L19.0219 6.5009ZM21.8023 18.5321C19.3959 17.3555 16.6846 15.9938 14.2922 14.7808C12.9388 14.0946 11.4776 14.134 10.3686 14.6986C9.27046 15.2576 8.5 16.337 8.5 17.8098C8.5 18.4237 8.7532 19.1143 9.17525 19.6491C9.5985 20.1854 10.1359 20.5 10.6734 20.5L19.9255 20.5C20.4384 19.7113 21.074 19.0393 21.8023 18.5321ZM19.3704 21.5L14.8558 21.5C14.5439 21.5 14.2109 21.6835 13.9357 22.0317C13.6617 22.3785 13.5 22.8245 13.5 23.2125C13.5 24.1801 14.0055 24.8814 14.7255 25.2438C15.4563 25.6117 16.4254 25.6352 17.3235 25.1686C17.7214 24.962 18.1315 24.7495 18.5478 24.5345C18.6108 23.8948 18.7349 23.2776 18.9129 22.6925C19.0391 22.2781 19.1924 21.8794 19.3704 21.5ZM22.8443 19.0614C21.9759 19.5353 21.211 20.2924 20.6311 21.2575C20.4066 21.631 20.2105 22.0347 20.0474 22.4634C21.3632 22.7241 23.186 23 25 23C26.814 23 28.6368 22.7241 29.9526 22.4634C29.7895 22.0347 29.5934 21.631 29.3689 21.2575C28.789 20.2924 28.0241 19.5353 27.1557 19.0614C26.4932 19.3438 25.7643 19.5 25 19.5C24.2357 19.5 23.5068 19.3438 22.8443 19.0614ZM28.1977 18.5321C28.926 19.0393 29.5616 19.7113 30.0745 20.5L39.3266 20.5C39.8641 20.5 40.4015 20.1854 40.8248 19.6491C41.2468 19.1143 41.5 18.4237 41.5 17.8098C41.5 16.337 40.7295 15.2576 39.6314 14.6986C38.5224 14.134 37.0612 14.0946 35.7078 14.7808C33.3154 15.9938 30.6041 17.3555 28.1977 18.5321ZM30.6296 21.5C30.8076 21.8794 30.9609 22.2781 31.0871 22.6925C31.2651 23.2776 31.3892 23.8948 31.4522 24.5345C31.8685 24.7495 32.2786 24.962 32.6765 25.1686C33.5746 25.6352 34.5437 25.6117 35.2745 25.2438C35.9945 24.8814 36.5 24.1801 36.5 23.2125C36.5 22.8245 36.3383 22.3785 36.0643 22.0317C35.7891 21.6835 35.4561 21.5 35.1442 21.5L30.6296 21.5ZM30.2511 23.4236C28.8921 23.6973 26.9507 24 25 24C23.0493 24 21.1079 23.6973 19.7489 23.4236C19.6341 23.8916 19.5568 24.3812 19.5216 24.8867C19.5073 25.0927 19.5 25.3013 19.5 25.5122C19.5 25.76 19.5223 26.0295 19.5656 26.3191C20.5825 26.7361 22.3104 27.1939 25 27.1939C27.6896 27.1939 29.4175 26.7361 30.4344 26.3191C30.4777 26.0295 30.5 25.76 30.5 25.5122C30.5 25.3013 30.4927 25.0927 30.4784 24.8867C30.4432 24.3812 30.3659 23.8916 30.2511 23.4236ZM30.1802 27.4779C29.0199 27.8615 27.3392 28.1939 25 28.1939C22.6608 28.1939 20.9801 27.8615 19.8198 27.4779C20.1346 28.61 20.6551 29.8884 21.2662 31.2017C22.2706 31.5394 23.5212 31.7972 25 31.7972C26.4788 31.7972 27.7294 31.5394 28.7338 31.2017C29.3449 29.8884 29.8654 28.61 30.1802 27.4779ZM28.1507 32.414C27.238 32.6438 26.1848 32.7972 25 32.7972C23.8152 32.7972 22.762 32.6438 21.8493 32.414C22.2079 33.1387 22.5793 33.857 22.9425 34.5492C23.6154 34.7023 24.3111 34.7972 25 34.7972C25.6889 34.7972 26.3846 34.7023 27.0575 34.5492C27.4207 33.857 27.7921 33.1387 28.1507 32.414ZM26.461 35.6808C25.9826 35.7544 25.4927 35.7972 25 35.7972C24.5073 35.7972 24.0174 35.7544 23.539 35.6808C23.9398 36.4396 24.3139 37.1499 24.6236 37.7731C24.7595 38.0465 24.8866 38.3099 25 38.5587C25.1134 38.3099 25.2405 38.0465 25.3764 37.7731C25.6861 37.1499 26.0602 36.4396 26.461 35.6808ZM25 9.5C24.61 9.5 24.2323 9.54949 23.8725 9.64228C21.9326 10.1426 20.5 11.9046 20.5 14C20.5 15.6153 21.3507 17.0323 22.6309 17.8267C22.7653 17.9101 22.9044 17.9866 23.0477 18.0557C23.6377 18.3403 24.2995 18.5 25 18.5C25.7005 18.5 26.3623 18.3403 26.9523 18.0557C27.0955 17.9866 27.2347 17.9101 27.3691 17.8267C28.6493 17.0323 29.5 15.6153 29.5 14C29.5 11.9046 28.0674 10.1426 26.1275 9.64228C25.7677 9.54949 25.39 9.5 25 9.5Z" fill="#DBE1C9"/>
</svg>
