<svg width="50" height="50" viewBox="0 0 50 50" fill="none" xmlns="http://www.w3.org/2000/svg">
<path fill-rule="evenodd" clip-rule="evenodd" d="M10.1237 2.67075C10.3056 2.46293 10.6214 2.44187 10.8293 2.62371L14.5664 5.89369L14.2371 6.26998L14.5664 5.89369C14.8217 6.11709 14.9937 6.42045 15.0544 6.75423L15.9334 11.5886C15.9524 11.6932 16.0043 11.789 16.0815 11.8621L19.6386 15.232C19.5479 14.8359 19.5 14.4236 19.5 14C19.5 11.131 21.6967 8.77504 24.5 8.52242V3C24.5 2.72386 24.7239 2.5 25 2.5C25.2761 2.5 25.5 2.72386 25.5 3V8.52242C28.3033 8.77504 30.5 11.131 30.5 14C30.5 14.4236 30.4521 14.8359 30.3614 15.232L33.9185 11.8621C33.9957 11.789 34.0476 11.6932 34.0666 11.5886L34.9456 6.75423C35.0063 6.42045 35.1783 6.11709 35.4336 5.89369L39.1707 2.62371C39.3786 2.44187 39.6944 2.46293 39.8763 2.67075C40.0581 2.87857 40.0371 3.19445 39.8293 3.37629L36.0921 6.64627C36.007 6.72073 35.9497 6.82185 35.9295 6.93311L35.0505 11.7675C34.9934 12.0813 34.8378 12.3687 34.6063 12.5881L29.5766 17.353C32.0163 17.003 34.8906 16.7502 37.4859 16.6145C39.0835 16.531 40.5816 16.4915 41.814 16.5015C43.0312 16.5114 44.0311 16.5695 44.6064 16.6948C46.306 17.0649 47.25 18.2837 47.25 19.6109C47.25 20.9288 46.3192 22.1895 44.6358 22.6645C44.0517 22.8294 43.0499 22.9093 41.846 22.9331C40.6234 22.9573 39.1384 22.9239 37.5543 22.8415C34.682 22.6922 31.461 22.3806 28.8609 21.9514C28.8973 22.0931 28.9333 22.2363 28.9687 22.3808C29.0514 22.7177 29.1314 23.0618 29.2085 23.4117L33.0997 24.3845C33.5882 24.5067 33.9828 24.8657 34.1504 25.3405L36.8538 33.0001C36.8919 33.108 36.9658 33.1996 37.0632 33.2595L43.262 37.0742C43.4972 37.2189 43.5706 37.5269 43.4258 37.762C43.2811 37.9972 42.9731 38.0706 42.738 37.9258L36.5391 34.1112C36.2468 33.9313 36.025 33.6566 35.9108 33.3329L33.2074 25.6733C33.1516 25.5151 33.02 25.3954 32.8572 25.3547L29.4354 24.4992C29.4949 24.8005 29.5522 25.1049 29.6073 25.4116C29.7857 26.4041 29.941 27.4217 30.0699 28.437C30.0927 28.6171 30.1148 28.7971 30.1359 28.9769L31.9604 30.3453C32.2859 30.5895 32.4983 30.9554 32.5488 31.3592L33.4632 38.6745C33.474 38.7608 33.5071 38.8428 33.5593 38.9125L37.9 44.7C38.0657 44.9209 38.0209 45.2343 37.8 45.4C37.5791 45.5657 37.2657 45.5209 37.1 45.3L32.7593 39.5125C32.6027 39.3036 32.5033 39.0575 32.4709 38.7985L31.5565 31.4833C31.5397 31.3487 31.4689 31.2267 31.3604 31.1453L30.2799 30.335C30.3483 31.0607 30.4017 31.777 30.4387 32.4734C30.5169 33.9426 30.5228 35.329 30.4419 36.5335C30.3512 37.8828 30.1492 39.0521 29.7872 39.8534C28.7233 42.2082 26.96 43.5 25.0741 43.5C23.1919 43.5 21.3984 42.213 20.2702 39.864C19.8839 39.0599 19.6671 37.8873 19.5674 36.5368C19.4784 35.331 19.4802 33.9436 19.5572 32.4738C19.5937 31.7782 19.647 31.0629 19.7158 30.3381L18.6396 31.1453C18.5311 31.2267 18.4603 31.3487 18.4435 31.4833L17.5291 38.7985C17.4967 39.0575 17.3973 39.3036 17.2407 39.5125L12.9 45.3C12.7343 45.5209 12.4209 45.5657 12.2 45.4C11.9791 45.2343 11.9343 44.9209 12.1 44.7L16.4407 38.9125C16.4929 38.8428 16.526 38.7608 16.5368 38.6745L17.4512 31.3592C17.5017 30.9554 17.7141 30.5895 18.0396 30.3453L19.8616 28.9788C19.8831 28.7981 19.9056 28.6171 19.9289 28.4361C20.0597 27.4205 20.2178 26.4028 20.3995 25.41C20.4556 25.103 20.5141 24.7983 20.5747 24.4967L17.1428 25.3547C16.98 25.3954 16.8484 25.5151 16.7926 25.6733L14.0892 33.3329C13.975 33.6566 13.7532 33.9313 13.4609 34.1112L7.26205 37.9258C7.02687 38.0706 6.7189 37.9972 6.57417 37.762C6.42945 37.5269 6.50277 37.2189 6.73795 37.0742L12.9368 33.2595C13.0342 33.1996 13.1081 33.108 13.1462 33.0001L15.8496 25.3405C16.0172 24.8657 16.4118 24.5067 16.9003 24.3845L20.8059 23.4081C20.8843 23.0588 20.9656 22.7152 21.0496 22.3789C21.0858 22.2339 21.1225 22.0902 21.1597 21.948C18.5603 22.3782 15.3363 22.6908 12.4601 22.8408C10.873 22.9236 9.38479 22.9573 8.1596 22.9332C6.95303 22.9095 5.94918 22.8296 5.3642 22.6645C3.68084 22.1895 2.75 20.9288 2.75 19.6109C2.75 18.2837 3.69401 17.0649 5.3936 16.6948C5.96894 16.5695 6.96882 16.5114 8.18602 16.5015C9.41839 16.4915 10.9165 16.531 12.5141 16.6145C15.1094 16.7502 17.9837 17.003 20.4234 17.353L15.3937 12.5881C15.1622 12.3687 15.0066 12.0813 14.9495 11.7675L14.0706 6.93311C14.0503 6.82185 13.993 6.72073 13.9079 6.64627L10.1707 3.37629C9.96293 3.19445 9.94187 2.87857 10.1237 2.67075ZM22.022 18.6247C21.966 18.6144 21.9097 18.6042 21.8529 18.5941C19.2006 18.1199 15.6315 17.7789 12.4619 17.6131C10.8786 17.5304 9.40129 17.4917 8.19416 17.5015C6.97186 17.5114 6.06817 17.5713 5.6064 17.6719C4.30599 17.9551 3.75 18.813 3.75 19.6109C3.75 20.4179 4.31916 21.3306 5.6358 21.7021C6.08206 21.8281 6.96613 21.9096 8.17922 21.9334C9.37368 21.9569 10.8369 21.9241 12.408 21.8422C15.4345 21.6843 18.8354 21.3452 21.4557 20.8829C21.6862 20.1031 21.933 19.3782 22.1937 18.7311C22.1358 18.6967 22.0785 18.6612 22.022 18.6247ZM23.0983 19.1622C22.8293 19.8368 22.5718 20.6104 22.3303 21.4571C22.2796 21.635 22.2296 21.8161 22.1804 22H27.8402C27.7921 21.8169 27.7431 21.6366 27.6935 21.4594C27.4545 20.607 27.1992 19.8287 26.9321 19.1509C26.3306 19.3766 25.6793 19.5 25 19.5C24.3322 19.5 23.6914 19.3808 23.0983 19.1622ZM27.8347 18.7141C28.0951 19.3667 28.341 20.0991 28.5701 20.8875C31.1911 21.3482 34.5862 21.6859 37.6063 21.8429C39.1744 21.9244 40.6344 21.9569 41.8262 21.9333C43.0366 21.9094 43.9187 21.8279 44.3642 21.7021C45.6808 21.3306 46.25 20.4179 46.25 19.6109C46.25 18.813 45.694 17.9551 44.3936 17.6719C43.9318 17.5713 43.0281 17.5114 41.8058 17.5015C40.5987 17.4917 39.1214 17.5304 37.5381 17.6131C34.3685 17.7789 30.7994 18.1199 28.1471 18.5941C28.0903 18.6042 28.034 18.6144 27.978 18.6247C27.9308 18.6552 27.883 18.685 27.8347 18.7141ZM28.0891 23H21.9271C21.8545 23.3028 21.7841 23.6112 21.7159 23.9245C21.6391 24.2775 21.5652 24.6365 21.4945 25H28.514C28.4446 24.637 28.3722 24.2785 28.2968 23.9259C28.2298 23.6122 28.1605 23.3032 28.0891 23ZM28.6954 26H21.3097C21.1942 26.6597 21.0893 27.3291 20.9962 28H29.0037C28.912 27.3291 28.8089 26.6597 28.6954 26ZM29.1317 29H20.8662C20.8538 29.1026 20.8417 29.2051 20.8298 29.3075C20.7244 30.2199 20.6424 31.1243 20.5865 32H29.4092C29.3529 31.1233 29.2714 30.2179 29.1672 29.3047C29.1556 29.2032 29.1438 29.1016 29.1317 29ZM29.4629 33H20.5336C20.4889 34.0755 20.488 35.0892 20.5356 36H29.4705C29.5129 35.0888 29.5089 34.0752 29.4629 33ZM29.401 37H20.6121C20.7219 38.0599 20.9113 38.8892 21.1716 39.431C22.1903 41.552 23.6925 42.5 25.0741 42.5C26.4518 42.5 27.9203 41.5568 28.8758 39.4417C29.122 38.8967 29.2998 38.0633 29.401 37ZM25 9.5C22.5147 9.5 20.5 11.5147 20.5 14C20.5 15.5559 21.2893 16.9277 22.4916 17.7366C22.6685 17.8556 22.8542 17.9624 23.0475 18.0556C23.6375 18.3402 24.2994 18.5 25 18.5C25.7116 18.5 26.3833 18.3352 26.9803 18.0421C27.1636 17.9521 27.34 17.8499 27.5084 17.7366C28.7107 16.9277 29.5 15.5559 29.5 14C29.5 11.5147 27.4853 9.5 25 9.5Z" fill="#DBE1C9"/>
</svg>
