<svg width="75" height="75" viewBox="0 0 75 75" fill="none" xmlns="http://www.w3.org/2000/svg">
<path fill-rule="evenodd" clip-rule="evenodd" d="M30.4927 7.04665C30.7431 6.47801 31.4071 6.22001 31.9757 6.47039C33.9379 7.3344 35.2582 8.479 36.0907 9.76341C36.6513 10.6283 36.9694 11.5235 37.1283 12.3829C37.2516 12.3776 37.3755 12.375 37.5 12.375C37.6319 12.375 37.7633 12.378 37.8939 12.3839C38.0526 11.525 38.3702 10.6304 38.93 9.76594C39.7624 8.48052 41.0831 7.33498 43.0466 6.47039C43.6153 6.22001 44.2792 6.47801 44.5296 7.04665C44.78 7.61529 44.522 8.27923 43.9534 8.52961C42.331 9.24398 41.3786 10.1241 40.8186 10.9889C40.4426 11.5696 40.2221 12.1763 40.1092 12.777C43.5973 13.883 46.125 17.1453 46.125 21C46.125 23.2105 45.2929 25.2265 43.9269 26.7519C44.7091 27.1817 45.4013 27.7538 45.9692 28.4332L52.0334 21.436C52.0925 21.3679 52.125 21.2807 52.125 21.1905V16.2762C52.125 15.6801 52.3279 15.1018 52.7002 14.6363L55.3715 11.2972C55.7597 10.812 56.4676 10.7334 56.9528 11.1215C57.438 11.5097 57.5166 12.2176 57.1285 12.7028L54.4572 16.0419C54.404 16.1084 54.375 16.191 54.375 16.2762V21.1905C54.375 21.822 54.1473 22.4324 53.7337 22.9096L47.1682 30.4852C47.4636 31.2682 47.625 32.1162 47.625 33V35.8238L45.9665 36.8038L45.865 38.2539L51.6523 40.7342C52.2607 40.9949 52.7482 41.4759 53.017 42.0808L55.5093 47.6885C55.5521 47.7848 55.6335 47.8586 55.7334 47.892L59.6058 49.1827C60.1952 49.3792 60.5137 50.0163 60.3173 50.6058C60.1208 51.1952 59.4837 51.5137 58.8942 51.3173L55.0219 50.0265C54.3222 49.7932 53.7528 49.2763 53.4533 48.6023L50.9609 42.9946C50.9225 42.9082 50.8529 42.8395 50.766 42.8022L45.6986 40.6305L45.11 49.0389L48.3649 51.887C48.9346 52.3854 49.2614 53.1055 49.2614 53.8625V63.8266C49.2614 63.9529 49.325 64.0708 49.4306 64.1401L53.1172 66.5594C53.6367 66.9003 53.7814 67.5978 53.4406 68.1172C53.0997 68.6367 52.4022 68.7814 51.8828 68.4406L48.1961 66.0212C47.4567 65.536 47.0114 64.711 47.0114 63.8266V53.8625C47.0114 53.7543 46.9647 53.6515 46.8833 53.5803L44.9128 51.8561L44.6095 56.1887L39.9273 67.5599C39.4811 68.6436 38.4905 69.1854 37.5 69.1854C36.5095 69.1854 35.5189 68.6436 35.0727 67.5599L30.3905 56.1887L30.1305 52.4745L28.8667 53.5803C28.7853 53.6515 28.7386 53.7543 28.7386 53.8625V63.8266C28.7386 64.711 28.2933 65.536 27.5539 66.0212L23.8672 68.4406C23.3478 68.7814 22.6503 68.6367 22.3094 68.1172C21.9686 67.5978 22.1133 66.9003 22.6328 66.5594L26.3194 64.1401C26.425 64.0708 26.4886 63.9529 26.4886 63.8266V53.8625C26.4886 53.1055 26.8154 52.3854 27.3851 51.887L29.9333 49.6573L29.3232 40.9426L24.984 42.8022C24.8971 42.8395 24.8275 42.9082 24.7891 42.9946L22.2967 48.6023C21.9972 49.2763 21.4278 49.7932 20.7281 50.0265L16.8558 51.3173C16.2663 51.5137 15.6292 51.1952 15.4327 50.6058C15.2363 50.0163 15.5548 49.3792 16.1442 49.1827L20.0166 47.892C20.1165 47.8586 20.1979 47.7848 20.2407 47.6885L22.733 42.0808C23.0018 41.4759 23.4893 40.9949 24.0977 40.7342L29.1569 38.566L29.0335 36.8038L27.375 35.8238V33C27.375 31.8928 27.6282 30.8427 28.0801 29.9064L22.0163 22.9096C21.6027 22.4324 21.375 21.822 21.375 21.1905V16.2762C21.375 16.191 21.346 16.1084 21.2928 16.0419L18.6215 12.7028C18.2334 12.2176 18.312 11.5097 18.7972 11.1215C19.2824 10.7334 19.9903 10.812 20.3785 11.2972L23.0498 14.6363C23.4221 15.1018 23.625 15.6801 23.625 16.2762V21.1905C23.625 21.2807 23.6575 21.3679 23.7166 21.436L29.4141 28.0101C29.9005 27.5144 30.4591 27.0893 31.0731 26.7519C29.7072 25.2265 28.875 23.2105 28.875 21C28.875 17.1376 31.4129 13.8699 34.9118 12.7704C34.7985 12.1713 34.578 11.5663 34.2026 10.9872C33.6425 10.1229 32.6903 9.24351 31.069 8.52961C30.5003 8.27923 30.2423 7.61529 30.4927 7.04665ZM33.0006 28.3596C31.9177 28.7093 30.998 29.429 30.393 30.3722C29.907 31.1298 29.625 32.0303 29.625 33V34.5399L37.5 39.1933L45.375 34.5399V33C45.375 32.2043 45.1852 31.4561 44.8494 30.7953C44.2655 29.6461 43.2397 28.7602 41.9994 28.3596C40.689 29.1622 39.1472 29.625 37.5 29.625C35.8528 29.625 34.311 29.1622 33.0006 28.3596ZM36.375 41.142L31.3863 38.1941L32.6095 55.6685L36.375 64.8132V41.142ZM38.625 64.8132L42.3905 55.6685L43.6137 38.1941L38.625 41.142V64.8132ZM37.5 14.625C37.1015 14.625 36.7125 14.6614 36.3359 14.7308C33.371 15.2773 31.125 17.8775 31.125 21C31.125 23.1583 32.1965 25.0665 33.8416 26.2216C34.8769 26.9485 36.1369 27.375 37.5 27.375C38.8631 27.375 40.1231 26.9485 41.1584 26.2216C42.8035 25.0665 43.875 23.1583 43.875 21C43.875 17.8842 41.6385 15.2883 38.683 14.7343C38.3005 14.6627 37.9052 14.625 37.5 14.625Z" fill="#020A10"/>
</svg>
