<svg width="1111" height="382" viewBox="0 0 1111 382" fill="none" xmlns="http://www.w3.org/2000/svg">
<g filter="url(#filter0_i)">
<path d="M475 219.455H477.483V211.648H488.417V219.455H490.9V202H488.417V209.773H477.483V202H475V219.455Z" fill="white"/>
<path d="M532.047 202H529.564V219.455H532.047V202Z" fill="white"/>
<path d="M571.559 202H568.956L576.485 219.455H579.048L586.578 202H583.975L577.887 216.693H577.647L571.559 202Z" fill="white"/>
<path d="M623.465 219.455H636V217.58H625.948V211.648H635.199V209.773H625.948V203.875H635.84V202H623.465V219.455Z" fill="white"/>
</g>
<path d="M474.5 219.455V219.955H475H477.483H477.983V219.455V212.148H487.917V219.455V219.955H488.417H490.9H491.4V219.455V202V201.5H490.9H488.417H487.917V202V209.273H477.983V202V201.5H477.483H475H474.5V202V219.455ZM532.547 202V201.5H532.047H529.564H529.064V202V219.455V219.955H529.564H532.047H532.547V219.455V202ZM572.021 201.809L571.893 201.5H571.559H568.956H568.196L568.497 202.198L576.026 219.653L576.156 219.955H576.485H579.048H579.377L579.508 219.653L587.037 202.198L587.338 201.5H586.578H583.975H583.64L583.513 201.809L577.767 215.677L572.021 201.809ZM622.965 219.455V219.955H623.465H636H636.5V219.455V217.58V217.08H636H626.448V212.148H635.199H635.699V211.648V209.773V209.273H635.199H626.448V204.375H635.84H636.34V203.875V202V201.5H635.84H623.465H622.965V202V219.455Z" stroke="white"/>
<path d="M672.211 73.9571L690.423 105.5L672.211 137.043L635.789 137.043L617.577 105.5L635.789 73.9571L672.211 73.9571Z" stroke="#119F32"/>
<path d="M672.211 279.457L690.423 311L672.211 342.543L635.789 342.543L617.577 311L635.789 279.457L672.211 279.457Z" stroke="#119F32"/>
<path d="M792.211 142.457L810.423 174L792.211 205.543L755.789 205.543L737.577 174L755.789 142.457L792.211 142.457Z" stroke="#119F32"/>
<path d="M732.211 107.957L750.423 139.5L732.211 171.043L695.789 171.043L677.577 139.5L695.789 107.957L732.211 107.957Z" stroke="#119F32"/>
<path d="M732.211 176.457L750.423 208L732.211 239.543L695.789 239.543L677.577 208L695.789 176.457L732.211 176.457Z" stroke="#119F32"/>
<path d="M732.211 244.957L750.423 276.5L732.211 308.043L695.789 308.043L677.577 276.5L695.789 244.957L732.211 244.957Z" stroke="#119F32"/>
<path d="M852.211 107.957L870.423 139.5L852.211 171.043L815.789 171.043L797.577 139.5L815.789 107.957L852.211 107.957Z" stroke="#119F32"/>
<path d="M852.211 176.457L870.423 208L852.211 239.543L815.789 239.543L797.577 208L815.789 176.457L852.211 176.457Z" stroke="#119F32"/>
<path d="M852.211 244.957L870.423 276.5L852.211 308.043L815.789 308.043L797.577 276.5L815.789 244.957L852.211 244.957Z" stroke="#119F32"/>
<path d="M912.211 5.45706L930.423 37L912.211 68.5429L875.789 68.5429L857.577 37L875.789 5.45706L912.211 5.45706Z" stroke="#119F32"/>
<path d="M912.211 73.9571L930.423 105.5L912.211 137.043L875.789 137.043L857.577 105.5L875.789 73.9571L912.211 73.9571Z" stroke="#119F32"/>
<path d="M912.211 279.457L930.423 311L912.211 342.543L875.789 342.543L857.577 311L875.789 279.457L912.211 279.457Z" stroke="#119F32"/>
<path d="M1032.21 73.9571L1050.42 105.5L1032.21 137.043L995.789 137.043L977.577 105.5L995.789 73.9571L1032.21 73.9571Z" stroke="#119F32"/>
<path d="M1032.21 142.457L1050.42 174L1032.21 205.543L995.789 205.543L977.577 174L995.789 142.457L1032.21 142.457Z" stroke="#119F32"/>
<path d="M972.211 39.4571L990.423 71L972.211 102.543L935.789 102.543L917.577 71L935.789 39.4571L972.211 39.4571Z" stroke="#119F32"/>
<path d="M972.211 176.457L990.423 208L972.211 239.543L935.789 239.543L917.577 208L935.789 176.457L972.211 176.457Z" stroke="#119F32"/>
<path d="M1092.21 39.4571L1110.42 71L1092.21 102.543L1055.79 102.543L1037.58 71L1055.79 39.4571L1092.21 39.4571Z" stroke="#119F32"/>
<path d="M1092.21 176.457L1110.42 208L1092.21 239.543L1055.79 239.543L1037.58 208L1055.79 176.457L1092.21 176.457Z" stroke="#119F32"/>
<path d="M438.789 73.9571L420.577 105.5L438.789 137.043L475.211 137.043L493.423 105.5L475.211 73.9571L438.789 73.9571Z" stroke="#119F32"/>
<path d="M438.789 279.457L420.577 311L438.789 342.543L475.211 342.543L493.423 311L475.211 279.457L438.789 279.457Z" stroke="#119F32"/>
<path d="M318.789 142.457L300.577 174L318.789 205.543L355.211 205.543L373.423 174L355.211 142.457L318.789 142.457Z" stroke="#119F32"/>
<path d="M378.789 107.957L360.577 139.5L378.789 171.043L415.211 171.043L433.423 139.5L415.211 107.957L378.789 107.957Z" stroke="#119F32"/>
<path d="M378.789 176.457L360.577 208L378.789 239.543L415.211 239.543L433.423 208L415.211 176.457L378.789 176.457Z" stroke="#119F32"/>
<path d="M378.789 244.957L360.577 276.5L378.789 308.043L415.211 308.043L433.423 276.5L415.211 244.957L378.789 244.957Z" stroke="#119F32"/>
<path d="M258.789 107.957L240.577 139.5L258.789 171.043L295.211 171.043L313.423 139.5L295.211 107.957L258.789 107.957Z" stroke="#119F32"/>
<path d="M258.789 176.457L240.577 208L258.789 239.543L295.211 239.543L313.423 208L295.211 176.457L258.789 176.457Z" stroke="#119F32"/>
<path d="M258.789 244.957L240.577 276.5L258.789 308.043L295.211 308.043L313.423 276.5L295.211 244.957L258.789 244.957Z" stroke="#119F32"/>
<path d="M198.789 5.45706L180.577 37L198.789 68.5429L235.211 68.5429L253.423 37L235.211 5.45706L198.789 5.45706Z" stroke="#119F32"/>
<path d="M198.789 73.9571L180.577 105.5L198.789 137.043L235.211 137.043L253.423 105.5L235.211 73.9571L198.789 73.9571Z" stroke="#119F32"/>
<path d="M198.789 279.457L180.577 311L198.789 342.543L235.211 342.543L253.423 311L235.211 279.457L198.789 279.457Z" stroke="#119F32"/>
<path d="M78.7887 73.9571L60.5774 105.5L78.7887 137.043L115.211 137.043L133.423 105.5L115.211 73.9571L78.7887 73.9571Z" stroke="#119F32"/>
<path d="M78.7887 142.457L60.5774 174L78.7887 205.543L115.211 205.543L133.423 174L115.211 142.457L78.7887 142.457Z" stroke="#119F32"/>
<path d="M138.789 39.4571L120.577 71L138.789 102.543L175.211 102.543L193.423 71L175.211 39.4571L138.789 39.4571Z" stroke="#119F32"/>
<path d="M138.789 176.457L120.577 208L138.789 239.543L175.211 239.543L193.423 208L175.211 176.457L138.789 176.457Z" stroke="#119F32"/>
<path d="M18.7887 39.4571L0.577352 71L18.7887 102.543L55.2113 102.543L73.4226 71L55.2113 39.4571L18.7887 39.4571Z" stroke="#119F32"/>
<path d="M18.7887 176.457L0.577352 208L18.7887 239.543L55.2113 239.543L73.4226 208L55.2113 176.457L18.7887 176.457Z" stroke="#119F32"/>
<defs>
<filter id="filter0_i" x="474" y="201" width="166" height="22.4545" filterUnits="userSpaceOnUse" color-interpolation-filters="sRGB">
<feFlood flood-opacity="0" result="BackgroundImageFix"/>
<feBlend mode="normal" in="SourceGraphic" in2="BackgroundImageFix" result="shape"/>
<feColorMatrix in="SourceAlpha" type="matrix" values="0 0 0 0 0 0 0 0 0 0 0 0 0 0 0 0 0 0 127 0" result="hardAlpha"/>
<feOffset dx="4" dy="6"/>
<feGaussianBlur stdDeviation="1.5"/>
<feComposite in2="hardAlpha" operator="arithmetic" k2="-1" k3="1"/>
<feColorMatrix type="matrix" values="0 0 0 0 1 0 0 0 0 1 0 0 0 0 1 0 0 0 1 0"/>
<feBlend mode="normal" in2="shape" result="effect1_innerShadow"/>
</filter>
</defs>
</svg>
