<svg width="75" height="75" viewBox="0 0 75 75" fill="none" xmlns="http://www.w3.org/2000/svg">
<path fill-rule="evenodd" clip-rule="evenodd" d="M34.4945 8.02572C35.0325 8.33638 35.2169 9.02442 34.9062 9.5625C34.134 10.9 33.8415 12.0453 33.8241 13.0151C34.9396 12.4888 36.1861 12.1945 37.5 12.1945C38.8568 12.1945 40.1417 12.5084 41.2847 13.0673C41.277 12.0858 40.9876 10.9234 40.2018 9.5625C39.8912 9.02442 40.0755 8.33638 40.6136 8.02572C41.1517 7.71506 41.8397 7.89942 42.1504 8.4375C43.4779 10.7368 43.7451 12.7834 43.3951 14.5235C45.0737 16.096 46.125 18.3352 46.125 20.8195C46.125 21.5502 46.0339 22.2608 45.8621 22.94C53.9663 26.4737 59.625 34.9654 59.625 44.8195C59.625 55.1775 53.3723 64.0311 44.5988 67.2021C42.3699 68.0077 39.9819 68.4445 37.5 68.4445C35.0181 68.4445 32.6301 68.0077 30.4012 67.2021C21.6277 64.0311 15.375 55.1775 15.375 44.8195C15.375 34.9654 21.0337 26.4737 29.1379 22.94C28.9661 22.2608 28.875 21.5502 28.875 20.8195C28.875 18.2903 29.9646 16.0153 31.6966 14.4389C31.3717 12.7158 31.6524 10.6983 32.9577 8.4375C33.2683 7.89942 33.9564 7.71506 34.4945 8.02572ZM31.263 22.1463C33.2417 21.5268 35.3351 21.1945 37.5 21.1945C39.6649 21.1945 41.7583 21.5268 43.737 22.1463C43.8274 21.7189 43.875 21.2751 43.875 20.8195C43.875 18.7855 42.9237 16.9744 41.4373 15.8053C40.3531 14.9525 38.9874 14.4445 37.5 14.4445C36.0462 14.4445 34.7089 14.9298 33.6369 15.7478C32.108 16.9144 31.125 18.7519 31.125 20.8195C31.125 21.2751 31.1726 21.7189 31.263 22.1463ZM36.375 23.4781C34.4741 23.5921 32.6454 23.9932 30.9248 24.6418C23.2143 27.5486 17.625 35.4556 17.625 44.8195C17.625 53.9487 22.9373 61.6924 30.3484 64.7688L36.375 55.7288V23.4781ZM38.625 23.4781V55.7288L44.6516 64.7688C52.0627 61.6924 57.375 53.9487 57.375 44.8195C57.375 35.4556 51.7857 27.5486 44.0752 24.6418C42.3546 23.9932 40.5259 23.5921 38.625 23.4781ZM42.4521 65.5258L37.5 58.0976L32.5479 65.5258C34.1305 65.9623 35.7895 66.1945 37.5 66.1945C39.2105 66.1945 40.8695 65.9623 42.4521 65.5258ZM25.875 35.8195C25.875 33.5413 27.7218 31.6945 30 31.6945C32.2782 31.6945 34.125 33.5413 34.125 35.8195C34.125 38.0976 32.2782 39.9445 30 39.9445C27.7218 39.9445 25.875 38.0976 25.875 35.8195ZM30 33.9445C28.9645 33.9445 28.125 34.7839 28.125 35.8195C28.125 36.855 28.9645 37.6945 30 37.6945C31.0355 37.6945 31.875 36.855 31.875 35.8195C31.875 34.7839 31.0355 33.9445 30 33.9445ZM45 33.9445C43.9645 33.9445 43.125 34.7839 43.125 35.8195C43.125 36.855 43.9645 37.6945 45 37.6945C46.0355 37.6945 46.875 36.855 46.875 35.8195C46.875 34.7839 46.0355 33.9445 45 33.9445ZM40.875 35.8195C40.875 33.5413 42.7218 31.6945 45 31.6945C47.2782 31.6945 49.125 33.5413 49.125 35.8195C49.125 38.0976 47.2782 39.9445 45 39.9445C42.7218 39.9445 40.875 38.0976 40.875 35.8195ZM21.375 49.3195C21.375 46.2129 23.8934 43.6945 27 43.6945C30.1066 43.6945 32.625 46.2129 32.625 49.3195C32.625 52.4261 30.1066 54.9445 27 54.9445C23.8934 54.9445 21.375 52.4261 21.375 49.3195ZM27 45.9445C25.136 45.9445 23.625 47.4555 23.625 49.3195C23.625 51.1834 25.136 52.6945 27 52.6945C28.864 52.6945 30.375 51.1834 30.375 49.3195C30.375 47.4555 28.864 45.9445 27 45.9445ZM48 45.9445C46.136 45.9445 44.625 47.4555 44.625 49.3195C44.625 51.1834 46.136 52.6945 48 52.6945C49.864 52.6945 51.375 51.1834 51.375 49.3195C51.375 47.4555 49.864 45.9445 48 45.9445ZM42.375 49.3195C42.375 46.2129 44.8934 43.6945 48 43.6945C51.1066 43.6945 53.625 46.2129 53.625 49.3195C53.625 52.4261 51.1066 54.9445 48 54.9445C44.8934 54.9445 42.375 52.4261 42.375 49.3195Z" fill="#020A10"/>
</svg>
