<svg width="75" height="75" viewBox="0 0 75 75" fill="none" xmlns="http://www.w3.org/2000/svg">
<path fill-rule="evenodd" clip-rule="evenodd" d="M14.9034 5.25918C15.3125 4.79159 16.0232 4.74421 16.4908 5.15335L22.0965 10.0583L21.4654 10.7795L22.0965 10.0583C22.5433 10.4493 22.8444 10.9801 22.9506 11.5643L24.269 18.8158C24.2833 18.8942 24.3222 18.9661 24.3801 19.0209L28.9131 23.3153C28.8879 23.0469 28.875 22.775 28.875 22.5C28.875 18.1178 32.1431 14.499 36.375 13.9477V6C36.375 5.37868 36.8787 4.875 37.5 4.875C38.1213 4.875 38.625 5.37868 38.625 6V13.9477C42.8569 14.499 46.125 18.1178 46.125 22.5C46.125 22.775 46.1121 23.0469 46.0869 23.3153L50.6199 19.0209C50.6778 18.9661 50.7167 18.8942 50.731 18.8158L52.0494 11.5643C52.1556 10.9801 52.4567 10.4493 52.9035 10.0583L58.5092 5.15335C58.9768 4.74421 59.6875 4.79159 60.0966 5.25918C60.5058 5.72677 60.4584 6.43751 59.9908 6.84665L54.3851 11.7516C54.3213 11.8075 54.2783 11.8833 54.2631 11.9668L52.9447 19.2183C52.8448 19.7674 52.5725 20.2704 52.1673 20.6543L45.4693 26.9998C48.8747 26.5546 52.7125 26.2301 56.2093 26.0473C58.6109 25.9217 60.866 25.8622 62.724 25.8773C64.5479 25.8922 66.0838 25.9785 66.9894 26.1758C69.6885 26.7636 71.25 28.727 71.25 30.9163C71.25 33.0849 69.7181 35.1063 67.0556 35.8577C66.1274 36.1197 64.5799 36.2389 62.7764 36.2746C60.931 36.3111 58.6941 36.2607 56.312 36.1368C52.1995 35.923 47.6073 35.4877 43.7942 34.8879C43.8019 34.9192 43.8096 34.9505 43.8173 34.9818C43.9241 35.4172 44.028 35.8604 44.1286 36.31L49.7406 37.713C50.5954 37.9267 51.286 38.5551 51.5792 39.386L55.6343 50.8753C55.6629 50.9563 55.7183 51.0249 55.7914 51.0699L65.0896 56.7919C65.6188 57.1175 65.7837 57.8105 65.4581 58.3396C65.1325 58.8688 64.4395 59.0337 63.9104 58.7081L54.6122 52.9861C54.1006 52.6713 53.7125 52.1906 53.5126 51.6242L49.4575 40.1348C49.4156 40.0161 49.317 39.9264 49.1948 39.8958L44.6331 38.7554C44.6832 39.0193 44.7322 39.2846 44.78 39.551C45.0488 41.0464 45.2828 42.5791 45.4768 44.1084C45.5045 44.3263 45.5313 44.5441 45.5574 44.7618L48.1656 46.7179C48.7353 47.1452 49.107 47.7857 49.1953 48.4923L50.5669 59.4652C50.575 59.5299 50.5998 59.5915 50.639 59.6437L57.15 68.325C57.5228 68.8221 57.4221 69.5272 56.925 69.9C56.4279 70.2728 55.7228 70.1721 55.35 69.675L48.839 60.9937C48.5649 60.6282 48.3909 60.1976 48.3343 59.7443L46.9627 48.7714C46.9501 48.6705 46.897 48.579 46.8156 48.5179L45.8682 47.8074C45.936 48.6137 45.9911 49.4101 46.0326 50.1902C46.1504 52.4044 46.1596 54.4997 46.0369 56.3254C45.9003 58.3604 45.594 60.1694 45.0225 61.4344C43.3861 65.0566 40.6306 67.125 37.6111 67.125C34.6002 67.125 31.8007 65.0673 30.0672 61.4584C29.4565 60.187 29.1276 58.3705 28.9771 56.3329C28.8421 54.5042 28.8453 52.4066 28.9614 50.1911C29.0022 49.4123 29.057 48.6173 29.125 47.8125L28.1844 48.5179C28.103 48.579 28.0499 48.6705 28.0373 48.7714L26.6657 59.7443C26.6091 60.1976 26.4351 60.6282 26.161 60.9937L19.65 69.675C19.2772 70.1721 18.5721 70.2728 18.075 69.9C17.5779 69.5272 17.4772 68.8221 17.85 68.325L24.361 59.6437C24.4002 59.5915 24.425 59.5299 24.4331 59.4652L25.8047 48.4923C25.893 47.7857 26.2647 47.1452 26.8344 46.7179L29.4392 44.7644C29.4657 44.5451 29.4932 44.3257 29.5214 44.1063C29.7185 42.5764 29.9567 41.0433 30.2303 39.5475C30.279 39.2812 30.3289 39.016 30.3799 38.7522L25.8052 39.8958C25.683 39.9264 25.5844 40.0161 25.5425 40.1348L21.4874 51.6242C21.2875 52.1906 20.8994 52.6713 20.3878 52.9861L11.0896 58.7081C10.5605 59.0337 9.86752 58.8688 9.54188 58.3396C9.21625 57.8105 9.38124 57.1175 9.91039 56.7919L19.2086 51.0699C19.2817 51.0249 19.3371 50.9563 19.3657 50.8753L23.4208 39.386C23.714 38.5551 24.4046 37.9267 25.2594 37.713L30.894 36.3044C30.9964 35.8551 31.1019 35.4124 31.2106 34.9774C31.2184 34.9461 31.2262 34.9147 31.2341 34.8834C27.422 35.4845 22.8266 35.9209 18.7096 36.1357C16.3231 36.2602 14.0813 36.3111 12.232 36.2748C10.4246 36.2393 8.87395 36.12 7.94445 35.8577C5.2819 35.1063 3.75 33.0849 3.75 30.9163C3.75 28.727 5.31152 26.7636 8.0106 26.1758C8.91619 25.9785 10.4521 25.8922 12.276 25.8773C14.134 25.8622 16.3891 25.9217 18.7907 26.0473C22.2875 26.2301 26.1253 26.5546 29.5307 26.9998L22.8327 20.6543C22.4275 20.2704 22.1552 19.7674 22.0553 19.2183L20.7369 11.9668C20.7217 11.8833 20.6787 11.8075 20.6149 11.7516L15.0092 6.84665C14.5416 6.43751 14.4942 5.72677 14.9034 5.25918ZM32.8154 29.7786C32.7815 29.7725 32.7474 29.7663 32.7133 29.7602C28.7559 29.0528 23.4192 28.5424 18.6732 28.2942C16.3036 28.1703 14.0955 28.1126 12.2943 28.1272C10.4589 28.1422 9.13947 28.2327 8.4894 28.3742C6.68848 28.7665 6 29.9181 6 30.9163C6 31.9352 6.7181 33.1737 8.55555 33.6923C9.17292 33.8665 10.4541 33.9894 12.2762 34.0252C14.0564 34.0601 16.2417 34.0114 18.5924 33.8887C23.0351 33.657 28.0116 33.1645 31.8905 32.4948C32.1818 31.5267 32.4907 30.6145 32.8154 29.7786ZM33.1871 36.375C33.1028 36.7338 33.0205 37.0979 32.9403 37.4664C32.8573 37.8482 32.7765 38.2346 32.6981 38.625H42.3162C42.2393 38.2349 42.16 37.8487 42.0785 37.4672C41.9997 37.0984 41.9189 36.7341 41.836 36.375H33.1871ZM43.1493 32.5017C47.0288 33.169 51.9962 33.6594 56.4289 33.8899C58.7751 34.0119 60.9556 34.0602 62.7319 34.025C64.5499 33.9891 65.8281 33.8662 66.4444 33.6923C68.2819 33.1737 69 31.9352 69 30.9163C69 29.9181 68.3115 28.7665 66.5106 28.3742C65.8605 28.2327 64.5411 28.1422 62.7057 28.1272C60.9045 28.1126 58.6964 28.1703 56.3268 28.2942C51.5808 28.5424 46.2441 29.0528 42.2867 29.7602C42.2686 29.7635 42.2505 29.7667 42.2325 29.77C42.5549 30.6102 42.861 31.5278 43.1493 32.5017ZM40.1792 30.7004C40.5272 31.6213 40.8623 32.6602 41.1791 33.7903C41.2101 33.9011 41.241 34.0126 41.2717 34.125H33.7614C33.7928 34.012 33.8244 33.8998 33.8561 33.7884C34.1765 32.665 34.5148 31.6318 34.8658 30.715C35.697 30.9814 36.5825 31.125 37.5 31.125C38.4341 31.125 39.335 30.9761 40.1792 30.7004ZM42.7266 40.875H32.2802C32.1528 41.6192 32.0345 42.3709 31.926 43.125H43.0747C42.968 42.3709 42.8517 41.6192 42.7266 40.875ZM43.364 45.375H31.6323C31.6273 45.4181 31.6223 45.4612 31.6173 45.5043C31.4758 46.7288 31.3626 47.9432 31.2805 49.125H43.7129C43.6306 47.9415 43.5181 46.7255 43.3783 45.4995C43.3735 45.458 43.3688 45.4165 43.364 45.375ZM43.834 51.375H31.1612C31.1136 52.7075 31.1123 53.9693 31.1611 55.125H43.8461C43.8888 53.9688 43.8836 52.7069 43.834 51.375ZM43.6857 57.375H31.3377C31.5045 58.743 31.7643 59.7948 32.0954 60.4842C33.5825 63.5802 35.7265 64.875 37.6111 64.875C39.4872 64.875 41.5794 63.5909 42.972 60.5081C43.2864 59.8122 43.5311 58.7513 43.6857 57.375ZM37.5 16.125C33.9792 16.125 31.125 18.9792 31.125 22.5C31.125 24.7039 32.2424 26.6472 33.9467 27.7938C34.1973 27.9624 34.4604 28.1136 34.7343 28.2457C35.5695 28.6486 36.5067 28.875 37.5 28.875C38.5089 28.875 39.46 28.6415 40.3052 28.2265C40.5649 28.099 40.8147 27.9543 41.0533 27.7938C42.7576 26.6472 43.875 24.7039 43.875 22.5C43.875 18.9792 41.0208 16.125 37.5 16.125Z" fill="#020A10"/>
</svg>
