<svg width="75" height="75" viewBox="0 0 75 75" fill="none" xmlns="http://www.w3.org/2000/svg">
<path fill-rule="evenodd" clip-rule="evenodd" d="M28.5492 13.126C27.9289 13.1532 27.4038 12.6726 27.3761 12.0522C27.3484 11.4315 27.8292 10.9059 28.4499 10.8782L28.5 12.0021C28.4499 10.8782 28.4504 10.8782 28.4509 10.8781L28.4521 10.8781L28.4549 10.878L28.462 10.8777L28.4822 10.877C28.4985 10.8765 28.52 10.876 28.5466 10.8756C28.5998 10.8748 28.6732 10.8746 28.7645 10.8763C28.9468 10.8797 29.2018 10.8909 29.5097 10.9214C30.1222 10.9823 30.9623 11.1215 31.8638 11.4393C33.4717 12.0063 35.3158 13.1645 36.3402 15.4524C36.7199 15.4013 37.1071 15.375 37.5 15.375C37.8929 15.375 38.2801 15.4013 38.6598 15.4524C39.6842 13.1645 41.5283 12.0063 43.1362 11.4393C44.0377 11.1215 44.8778 10.9823 45.4903 10.9214C45.7982 10.8909 46.0532 10.8797 46.2355 10.8763C46.3268 10.8746 46.4002 10.8748 46.4534 10.8756C46.48 10.876 46.5015 10.8765 46.5178 10.877L46.5381 10.8777L46.5451 10.878L46.5479 10.8781L46.5491 10.8781C46.5496 10.8782 46.5501 10.8782 46.5 12.0021L46.5501 10.8782C47.1708 10.9059 47.6516 11.4315 47.6239 12.0522C47.5962 12.6726 47.0712 13.1531 46.4509 13.126C46.4509 13.126 46.451 13.126 46.4509 13.126M46.4499 13.126L46.4201 13.1254C46.3905 13.1249 46.3422 13.1247 46.2774 13.1259C46.1476 13.1283 45.9533 13.1365 45.7126 13.1604C45.2278 13.2086 44.5731 13.3185 43.8845 13.5613C42.768 13.955 41.5986 14.6783 40.8677 16.0576C43.9573 17.3693 46.125 20.4304 46.125 24C46.125 25.093 45.9216 26.1384 45.5508 27.1004C47.9698 25.8963 50.4371 24.6533 52.7138 23.4989C55.2555 22.2102 58.0788 22.2473 60.2977 23.377C62.541 24.519 64.125 26.7645 64.125 29.7146C64.125 31.1029 63.5733 32.54 62.709 33.6352C61.8474 34.7269 60.5502 35.625 58.9899 35.625L56.0509 35.625C56.4105 36.2981 56.625 37.0638 56.625 37.8188C56.625 40.0156 55.4337 41.6955 53.7547 42.5406C52.1001 43.3734 50.0112 43.3835 48.1504 42.4169C47.9631 42.3196 47.774 42.2214 47.5834 42.1226C47.5502 42.4788 47.4978 42.8422 47.4298 43.2102C47.001 45.5302 45.9059 48.2469 44.6636 50.8864C43.842 52.632 42.9389 54.3789 42.0874 55.9983C41.873 56.406 41.6624 56.8046 41.4573 57.1928C40.8152 58.4083 40.2269 59.5219 39.7436 60.4942C39.0861 61.8169 38.7012 62.7295 38.6032 63.2203C38.4982 63.7463 38.0364 64.125 37.5 64.125C36.9636 64.125 36.5018 63.7463 36.3968 63.2203C36.2988 62.7295 35.9139 61.8169 35.2564 60.4942C34.7731 59.5219 34.1848 58.4083 33.5427 57.1928C33.3376 56.8046 33.127 56.406 32.9126 55.9983C32.0611 54.3789 31.158 52.632 30.3364 50.8864C29.0941 48.2469 27.999 45.5302 27.5702 43.2102C27.5022 42.8422 27.4499 42.4788 27.4166 42.1226C27.226 42.2214 27.0369 42.3196 26.8496 42.4169C24.9888 43.3835 22.8999 43.3734 21.2453 42.5406C19.5663 41.6955 18.375 40.0156 18.375 37.8188C18.375 37.0638 18.5895 36.2981 18.9491 35.625L16.0101 35.625C14.4498 35.625 13.1526 34.7269 12.291 33.6352C11.4267 32.54 10.875 31.1029 10.875 29.7146C10.875 26.7645 12.459 24.519 14.7023 23.377C16.9212 22.2473 19.7445 22.2102 22.2862 23.4989C24.5629 24.6533 27.0302 25.8963 29.4492 27.1004C29.0784 26.1384 28.875 25.093 28.875 24C28.875 20.4304 31.0427 17.3693 34.1323 16.0576C33.4014 14.6783 32.232 13.955 31.1155 13.5613C30.4269 13.3185 29.7722 13.2086 29.2874 13.1604C29.0467 13.1365 28.8524 13.1283 28.7226 13.1259C28.6578 13.1247 28.6095 13.1249 28.5799 13.1254L28.5492 13.126C28.5467 13.1261 28.5462 13.1261 28.5462 13.1261L28.5492 13.126M31.9865 30.8646C28.5158 29.1625 24.6762 27.2334 21.2687 25.5057C19.3409 24.5283 17.2755 24.5918 15.7231 25.3821C14.195 26.16 13.125 27.6537 13.125 29.7146C13.125 30.5421 13.4704 31.4977 14.0572 32.2413C14.6468 32.9883 15.3546 33.375 16.0101 33.375L29.6869 33.375C30.3378 32.4096 31.1119 31.5592 31.9865 30.8646ZM28.4795 35.625L22.2837 35.625C21.9663 35.625 21.5651 35.8152 21.1978 36.2801C20.8331 36.7416 20.625 37.3303 20.625 37.8188C20.625 39.121 21.2966 40.0475 22.2568 40.5308C23.2414 41.0264 24.568 41.0666 25.8124 40.4202C26.3521 40.1398 26.9069 39.8523 27.47 39.5613C27.5722 38.6499 27.7553 37.7687 28.0107 36.9296C28.1467 36.4825 28.3034 36.047 28.4795 35.625ZM34.2915 32.0082C33.1176 32.6876 32.0732 33.7397 31.268 35.0795C31.0163 35.4984 30.7888 35.9441 30.5889 36.4133C32.5025 36.7736 35.0098 37.125 37.5 37.125C39.9902 37.125 42.4975 36.7736 44.4111 36.4133C44.2112 35.9441 43.9837 35.4984 43.732 35.0795C42.9268 33.7397 41.8824 32.6876 40.7085 32.0082C39.7156 32.4063 38.6322 32.625 37.5 32.625C36.3678 32.625 35.2844 32.4063 34.2915 32.0082ZM43.0135 30.8646C43.8881 31.5592 44.6622 32.4096 45.3131 33.375L58.9899 33.375C59.6454 33.375 60.3532 32.9883 60.9428 32.2413C61.5296 31.4977 61.875 30.5421 61.875 29.7146C61.875 27.6537 60.805 26.16 59.2769 25.3821C57.7245 24.5918 55.6591 24.5283 53.7313 25.5057C50.3238 27.2334 46.4842 29.1625 43.0135 30.8646ZM46.5205 35.625C46.6966 36.047 46.8533 36.4825 46.9893 36.9296C47.2447 37.7687 47.4278 38.6499 47.53 39.5613C48.0931 39.8523 48.6479 40.1398 49.1876 40.4202C50.432 41.0666 51.7586 41.0264 52.7432 40.5308C53.7034 40.0475 54.375 39.121 54.375 37.8188C54.375 37.3303 54.1669 36.7416 53.8022 36.2801C53.4349 35.8152 53.0337 35.625 52.7163 35.625L46.5205 35.625ZM45.0927 38.5737C43.0647 38.967 40.2916 39.375 37.5 39.375C34.7084 39.375 31.9353 38.967 29.9073 38.5737C29.7841 39.1483 29.6991 39.7439 29.6566 40.356C29.6357 40.6564 29.625 40.9606 29.625 41.2683C29.625 41.5585 29.6467 41.8731 29.6899 42.2112C31.1909 42.7947 33.6833 43.4159 37.5 43.4159C41.3167 43.4159 43.8091 42.7947 45.3101 42.2112C45.3533 41.8731 45.375 41.5585 45.375 41.2683C45.375 40.9606 45.3643 40.6564 45.3434 40.356C45.3009 39.7439 45.2159 39.1483 45.0927 38.5737ZM44.7121 44.7807C42.9772 45.2756 40.6195 45.6659 37.5 45.6659C34.3805 45.6659 32.0228 45.2756 30.2879 44.7807C30.7445 46.2361 31.405 47.8405 32.1712 49.4975C33.6167 49.9674 35.4006 50.3208 37.5 50.3208C39.5994 50.3208 41.3833 49.9674 42.8288 49.4975C43.595 47.8405 44.2555 46.2361 44.7121 44.7807ZM41.5358 52.1639C40.3293 52.4138 38.9815 52.5708 37.5 52.5708C36.0185 52.5708 34.6707 52.4138 33.4642 52.1639C33.8616 52.9528 34.266 53.7337 34.665 54.4955C35.5999 54.6981 36.5568 54.8208 37.5 54.8208C38.4432 54.8208 39.4001 54.6981 40.335 54.4955C40.734 53.7337 41.1384 52.9528 41.5358 52.1639ZM39.0217 56.987C38.5201 57.0409 38.0114 57.0708 37.5 57.0708C36.9886 57.0708 36.4799 57.0409 35.9783 56.987C36.452 57.8863 36.8935 58.7327 37.2712 59.4927C37.3492 59.6496 37.4256 59.8049 37.5 59.9584C37.5744 59.8049 37.6508 59.6496 37.7288 59.4927C38.1065 58.7327 38.548 57.8863 39.0217 56.987ZM46.4499 13.126L46.4509 13.126C46.4534 13.1261 46.4538 13.1261 46.4538 13.1261L46.4509 13.126M37.5 17.625C36.9469 17.625 36.4118 17.6952 35.9024 17.8265C33.1541 18.5353 31.125 21.0321 31.125 24C31.125 26.2878 32.3294 28.2953 34.1441 29.4214C34.3345 29.5396 34.5316 29.648 34.7345 29.7459C35.5697 30.1487 36.5068 30.375 37.5 30.375C38.4932 30.375 39.4303 30.1487 40.2655 29.7459C40.4684 29.648 40.6655 29.5396 40.8559 29.4214C42.6706 28.2953 43.875 26.2878 43.875 24C43.875 21.0321 41.8459 18.5353 39.0976 17.8265C38.5882 17.6952 38.0531 17.625 37.5 17.625Z" fill="#020A10"/>
</svg>
