<svg width="75" height="75" viewBox="0 0 75 75" fill="none" xmlns="http://www.w3.org/2000/svg">
<path fill-rule="evenodd" clip-rule="evenodd" d="M25.7318 4.14913C26.3398 4.27713 26.7289 4.87377 26.6009 5.48176L23.7119 19.2043C23.694 19.2895 23.7063 19.3783 23.7467 19.4555L29.2348 29.9329C30.3011 29.2013 31.4695 28.6072 32.714 28.1764C30.3993 26.6296 28.875 23.9928 28.875 21C28.875 18.4708 29.9646 16.1958 31.6966 14.6195C31.3717 12.8963 31.6524 10.8788 32.9577 8.61804C33.2683 8.07996 33.9564 7.8956 34.4945 8.20626C35.0325 8.51692 35.2169 9.20496 34.9062 9.74304C34.134 11.0805 33.8415 12.2258 33.8241 13.1956C34.9396 12.6694 36.1861 12.375 37.5 12.375C38.8568 12.375 40.1417 12.6889 41.2847 13.2479C41.277 12.2663 40.9876 11.104 40.2018 9.74304C39.8912 9.20496 40.0755 8.51692 40.6136 8.20626C41.1517 7.8956 41.8397 8.07996 42.1504 8.61804C43.4779 10.9173 43.7451 12.964 43.3951 14.7041C45.0737 16.2766 46.125 18.5158 46.125 21C46.125 23.9928 44.6007 26.6296 42.286 28.1764C43.746 28.6818 45.1012 29.412 46.3097 30.3252L52.0033 19.4555C52.0437 19.3783 52.056 19.2895 52.0381 19.2043L49.1491 5.48176C49.0211 4.87377 49.4102 4.27713 50.0182 4.14913C50.6262 4.02113 51.2229 4.41025 51.3509 5.01824L54.2398 18.7407C54.3654 19.3375 54.2794 19.9593 53.9964 20.4995L48.0434 31.8645C48.4532 32.2907 48.8375 32.7418 49.1937 33.2153L55.2368 27.1722C55.2727 27.1363 55.3009 27.0935 55.3198 27.0463L61.2055 12.3322C61.4362 11.7553 62.0909 11.4747 62.6678 11.7055C63.2447 11.9362 63.5253 12.5909 63.2945 13.1678L57.4089 27.882C57.2769 28.212 57.0792 28.5118 56.8278 28.7632L50.4303 35.1607C51.458 37.1 52.0623 39.2981 52.1204 41.6294L57.5081 43.7016C58.2252 43.9774 58.7854 44.5535 59.0411 45.278L63.3109 57.3756C63.5177 57.9615 63.2103 58.6041 62.6244 58.8109C62.0385 59.0177 61.3959 58.7103 61.1891 58.1244L56.9194 46.0268C56.8829 45.9233 56.8028 45.841 56.7004 45.8016L51.9906 43.9902C51.7388 45.8396 51.1411 47.5798 50.265 49.1426L54.1487 51.9671C54.7226 52.3845 55.103 53.0164 55.2034 53.7188L57.3637 68.8409C57.4516 69.456 57.0242 70.0258 56.4091 70.1137C55.794 70.2016 55.2242 69.7742 55.1363 69.1591L52.976 54.037C52.9617 53.9367 52.9073 53.8464 52.8253 53.7868L49.0158 51.0162C46.34 54.4291 42.1767 56.625 37.5 56.625C32.9822 56.625 28.9432 54.5756 26.2619 51.3597L22.9247 53.7868C22.8427 53.8464 22.7883 53.9367 22.774 54.037L20.6137 69.1591C20.5258 69.7742 19.956 70.2016 19.3409 70.1137C18.7258 70.0258 18.2984 69.456 18.3863 68.8409L20.5466 53.7188C20.647 53.0164 21.0274 52.3845 21.6013 51.9671L24.9577 49.526C24.0056 47.9423 23.3445 46.1631 23.0492 44.2633L19.0496 45.8016C18.9472 45.841 18.8671 45.9233 18.8306 46.0268L14.5609 58.1244C14.3541 58.7103 13.7115 59.0177 13.1256 58.8109C12.5397 58.6041 12.2323 57.9615 12.4391 57.3756L16.7089 45.278C16.9646 44.5535 17.5248 43.9774 18.2419 43.7016L22.8752 41.9196C22.8894 39.2836 23.6019 36.8104 24.8372 34.6782L18.9222 28.7632C18.6708 28.5118 18.4731 28.212 18.3411 27.882L12.4555 13.1678C12.2247 12.5909 12.5053 11.9362 13.0822 11.7055C13.6591 11.4747 14.3138 11.7553 14.5445 12.3322L20.4302 27.0463C20.4491 27.0935 20.4773 27.1363 20.5132 27.1722L26.1352 32.7942C26.5421 32.2925 26.9815 31.8184 27.4502 31.3749L21.7536 20.4995C21.4706 19.9593 21.3846 19.3375 21.5102 18.7407L24.3991 5.01824C24.5271 4.41025 25.1238 4.02113 25.7318 4.14913ZM37.5 29.625C34.484 29.625 31.7225 30.7025 29.5753 32.4948C28.6627 33.2566 27.8614 34.1473 27.1996 35.1386C25.889 37.1018 25.125 39.46 25.125 42C25.125 42.2112 25.1303 42.4211 25.1407 42.6295C25.2621 45.0549 26.0811 47.2948 27.402 49.1553C29.6462 52.3162 33.3327 54.375 37.5 54.375C41.8121 54.375 45.6098 52.1704 47.8268 48.8216C49.0581 46.9617 49.8 44.7507 49.8696 42.3687C49.8732 42.2463 49.875 42.1234 49.875 42C49.875 39.638 49.2144 37.4338 48.0684 35.5581C47.4689 34.5769 46.7364 33.6853 45.8958 32.9086C43.6888 30.8694 40.741 29.625 37.5 29.625ZM37.5 14.625C36.0462 14.625 34.7089 15.1103 33.6369 15.9283C32.108 17.0949 31.125 18.9325 31.125 21C31.125 24.5208 33.9792 27.375 37.5 27.375C41.0208 27.375 43.875 24.5208 43.875 21C43.875 18.966 42.9237 17.1549 41.4373 15.9858C40.3531 15.133 38.9874 14.625 37.5 14.625Z" fill="#DBE1C9"/>
</svg>
