<svg width="75" height="75" viewBox="0 0 75 75" fill="none" xmlns="http://www.w3.org/2000/svg">
<path fill-rule="evenodd" clip-rule="evenodd" d="M14.0595 7.5C14.0595 6.87868 14.5631 6.375 15.1845 6.375C26.0934 6.375 31.4877 10.2753 33.9865 13.2326C35.1244 12.9323 36.2991 12.7749 37.5 12.7749C38.6517 12.7749 39.7793 12.9197 40.8736 13.1965C43.3865 10.2426 48.7817 6.375 59.6449 6.375C60.2662 6.375 60.7699 6.87868 60.7699 7.5C60.7699 8.12132 60.2662 8.625 59.6449 8.625C50.306 8.625 45.5252 11.6235 43.1887 13.9978C44.899 14.7545 46.4937 15.8387 47.9408 17.1862C48.2628 16.3639 48.4445 15.315 48.3636 13.9674C48.3263 13.3471 48.7988 12.8142 49.419 12.7769C50.0392 12.7396 50.5722 13.2122 50.6095 13.8324C50.7363 15.9418 50.3347 17.6152 49.6035 18.9243C50.4533 19.9176 51.2393 21.0109 51.9536 22.1895C52.3159 22.7873 52.66 23.4074 52.9849 24.0479C53.8338 23.4733 54.6739 22.5262 55.3594 20.9712C55.61 20.4026 56.274 20.1449 56.8426 20.3955C57.4111 20.6461 57.6688 21.3102 57.4182 21.8787C56.5045 23.9517 55.2817 25.2966 53.9347 26.1107C54.2965 26.9796 54.6254 27.879 54.9191 28.8053C55.2915 29.9796 55.6075 31.1978 55.8625 32.4525C56.8906 32.254 58.0613 31.6916 59.3214 30.4613C59.766 30.0272 60.4783 30.0357 60.9123 30.4803C61.3464 30.9248 61.3378 31.6371 60.8933 32.0711C59.3285 33.599 57.7493 34.3901 56.2438 34.6706C56.3628 35.513 56.4548 36.3693 56.5186 37.2375C56.589 38.1946 56.625 39.1663 56.625 40.1499C56.625 40.5399 56.6194 40.9281 56.6081 41.3142C58.0084 41.6501 59.4583 42.4348 60.8933 43.8359C61.3378 44.2699 61.3464 44.9822 60.9123 45.4268C60.4783 45.8713 59.766 45.8798 59.3214 45.4458C58.302 44.4504 57.3428 43.8942 56.4743 43.6126C56.3654 44.8535 56.1988 46.069 55.9782 47.2532C55.6243 49.1534 55.1314 50.9741 54.515 52.6907C55.789 53.6746 56.8637 55.1923 57.5128 57.4286C57.686 58.0253 57.3427 58.6495 56.7461 58.8227C56.1494 58.9959 55.5252 58.6526 55.352 58.0559C54.9243 56.5824 54.3061 55.5838 53.6273 54.9022C53.2608 55.7237 52.8642 56.5161 52.4394 57.2759C51.3103 59.2952 49.9791 61.0897 48.4809 62.5916C48.9705 63.7717 49.214 65.1961 49.1131 66.9017C49.0763 67.5219 48.5438 67.995 47.9235 67.9582C47.3033 67.9215 46.8303 67.3889 46.867 66.7687C46.927 65.7553 46.8383 64.9128 46.6552 64.2102C43.9653 66.3037 40.8484 67.5249 37.5 67.5249C34.1528 67.5249 31.0368 66.3045 28.3475 64.2122C28.1647 64.9144 28.0762 65.7563 28.1362 66.7687C28.1729 67.3889 27.6999 67.9215 27.0796 67.9582C26.4594 67.995 25.9268 67.5219 25.8901 66.9017C25.7892 65.1972 26.0324 63.7735 26.5214 62.5938C25.0223 61.0915 23.6903 59.2962 22.5607 57.2759C22.1362 56.5167 21.7399 55.7251 21.3738 54.9043C20.6958 55.5859 20.0784 56.5839 19.6511 58.0559C19.4779 58.6526 18.8538 58.9959 18.2571 58.8227C17.6604 58.6495 17.3171 58.0253 17.4903 57.4286C18.1391 55.1938 19.2128 53.6766 20.4858 52.6925C19.8691 50.9755 19.3759 49.1541 19.0219 47.2532C18.8014 46.0694 18.6348 44.8542 18.5259 43.6136C17.6582 43.8955 16.7001 44.4515 15.6817 45.4458C15.2372 45.8798 14.5249 45.8713 14.0909 45.4268C13.6568 44.9822 13.6653 44.2699 14.1099 43.8359C15.5438 42.4358 16.9926 41.6513 18.392 41.3149C18.3807 40.9285 18.375 40.5401 18.375 40.1499C18.375 39.1663 18.4111 38.1946 18.4814 37.2375C18.5453 36.3691 18.6373 35.5126 18.7563 34.67C17.2517 34.389 15.6736 33.5979 14.1099 32.0711C13.6653 31.6371 13.6568 30.9248 14.0909 30.4803C14.5249 30.0357 15.2372 30.0272 15.6817 30.4613C16.9407 31.6905 18.1103 32.253 19.1376 32.452C19.3927 31.1974 19.7087 29.9795 20.0809 28.8053C20.3748 27.8784 20.7039 26.9785 21.066 26.1092C19.7199 25.295 18.4981 23.9503 17.5849 21.8787C17.3343 21.3102 17.5921 20.6461 18.1606 20.3955C18.7292 20.1449 19.3932 20.4026 19.6438 20.9712C20.3287 22.5249 21.1679 23.4716 22.016 24.0463C22.3406 23.4064 22.6844 22.7868 23.0464 22.1895C23.7613 21.01 24.5479 19.916 25.3984 18.9221C24.6681 17.6133 24.267 15.9406 24.3937 13.8324C24.4309 13.2122 24.9639 12.7396 25.5841 12.7769C26.2043 12.8142 26.6769 13.3471 26.6396 13.9674C26.5587 15.3138 26.74 16.3621 27.0615 17.1841C28.4745 15.8688 30.0281 14.8045 31.6926 14.0509C29.3748 11.6679 24.5922 8.625 15.1845 8.625C14.5631 8.625 14.0595 8.12132 14.0595 7.5ZM37.5 15.0249C36.2747 15.0249 35.0792 15.2209 33.925 15.5949C31.6472 16.3331 29.5084 17.7723 27.6314 19.7971C26.9209 20.5637 26.2493 21.4126 25.6239 22.3361C28.8157 23.8462 32.9501 24.7749 37.5 24.7749C42.05 24.7749 46.1844 23.8462 49.3761 22.3361C48.7512 21.4133 48.0802 20.565 47.3703 19.7989C45.4583 17.7359 43.2748 16.2805 40.949 15.5549C39.8341 15.207 38.681 15.0249 37.5 15.0249ZM50.5554 24.2658C46.9861 26.0023 42.4295 27.0249 37.5 27.0249C32.5706 27.0249 28.0139 26.0023 24.4447 24.2658C24.1284 24.84 23.8286 25.4357 23.5463 26.0517C23.192 26.8248 22.8656 27.6293 22.5696 28.4621C26.7857 29.914 31.9296 30.7749 37.5 30.7749C43.0705 30.7749 48.2144 29.914 52.4305 28.4621C52.1346 27.6297 51.8083 26.8255 51.4542 26.0527C51.1718 25.4364 50.8718 24.8403 50.5554 24.2658ZM53.108 30.6084C48.6386 32.1397 43.2639 33.0249 37.5 33.0249C31.7361 33.0249 26.3615 32.1397 21.8921 30.6084C21.6009 31.6577 21.356 32.7432 21.1616 33.8594C21.0045 34.7613 20.8803 35.683 20.7911 36.6216C25.2931 38.5792 31.1134 39.7749 37.5 39.7749C43.8867 39.7749 49.707 38.5792 54.2089 36.6216C54.1198 35.683 53.9956 34.7613 53.8385 33.8594C53.644 32.7432 53.3992 31.6577 53.108 30.6084ZM54.3575 38.9993C49.6518 40.9075 43.8064 42.0249 37.5 42.0249C31.1937 42.0249 25.3483 40.9075 20.6425 38.9993C20.6309 39.3807 20.625 39.7642 20.625 40.1499C20.625 40.8405 20.6439 41.5246 20.6808 42.201C20.7555 43.5686 20.9042 44.9048 21.1207 46.2009C25.9552 47.837 31.5406 48.7749 37.5 48.7749C43.4595 48.7749 49.0449 47.837 53.8794 46.2009C54.0959 44.9047 54.2446 43.5685 54.3193 42.2007C54.3562 41.5244 54.375 40.8404 54.375 40.1499C54.375 39.7642 54.3692 39.3807 54.3575 38.9993ZM53.3585 48.733C48.5784 50.202 43.1911 51.0249 37.5 51.0249C31.809 51.0249 26.4217 50.202 21.6416 48.733C21.9832 50.1244 22.4052 51.4573 22.8986 52.7198C23.3203 53.7988 23.7939 54.8256 24.3136 55.7929C28.3551 57.0671 32.8122 57.7749 37.5 57.7749C42.1879 57.7749 46.645 57.0671 50.6865 55.7929C51.2064 54.8252 51.6802 53.7979 52.102 52.7184C52.5952 51.4563 53.017 50.1239 53.3585 48.733ZM48.9038 58.6349C45.321 59.5369 41.4853 60.0249 37.5 60.0249C33.5148 60.0249 29.679 59.5369 26.0962 58.6349C26.8864 59.7159 27.7426 60.6829 28.6518 61.5218C31.265 63.9331 34.2989 65.2749 37.5 65.2749C40.7019 65.2749 43.7366 63.9324 46.3502 61.52C47.2587 60.6815 48.1142 59.7151 48.9038 58.6349Z" fill="#020A10"/>
</svg>
