<?xml version="1.0" standalone="no"?>
<!DOCTYPE svg PUBLIC "-//W3C//DTD SVG 20010904//EN"
 "http://www.w3.org/TR/2001/REC-SVG-20010904/DTD/svg10.dtd">
<svg version="1.0" xmlns="http://www.w3.org/2000/svg"
 width="700.000000pt" height="700.000000pt" viewBox="0 0 700.000000 700.000000"
 preserveAspectRatio="xMidYMid meet">
<metadata>
Created by potrace 1.11, written by Peter Selinger 2001-2013
</metadata>
<g transform="translate(0.000000,700.000000) scale(0.100000,-0.100000)"
fill="#000000" stroke="none">
<path d="M2624 5975 c-64 -27 -84 -80 -53 -143 23 -47 33 -52 114 -58 166 -13
283 -52 379 -127 40 -31 116 -122 116 -138 0 -5 -19 -18 -42 -30 -207 -105
-359 -296 -418 -526 -36 -142 -31 -313 14 -441 l15 -42 -367 184 c-380 190
-397 197 -472 217 -71 18 -80 19 -172 23 -203 9 -398 -63 -533 -199 -172 -172
-234 -441 -153 -666 45 -122 165 -262 269 -311 78 -37 107 -41 279 -44 85 -1
158 -2 162 -3 3 0 -2 -18 -12 -39 -51 -106 -43 -267 20 -391 17 -35 56 -87 89
-119 165 -162 419 -194 643 -81 51 26 58 27 59 12 5 -123 92 -402 210 -669 47
-107 332 -679 389 -779 64 -114 202 -402 221 -461 12 -38 29 -77 38 -88 39
-46 113 -52 151 -11 11 12 33 58 49 102 27 77 109 246 224 466 31 59 81 153
111 210 271 514 435 912 472 1143 4 27 9 52 10 57 1 4 2 16 3 27 1 19 4 18 59
-9 169 -86 360 -89 521 -9 217 108 322 378 233 598 -5 14 -10 29 -11 35 -1 6
60 10 156 11 184 1 205 4 296 51 174 91 300 321 290 533 -18 406 -377 686
-803 629 -113 -16 -186 -46 -561 -234 l-366 -184 18 59 c111 359 -64 774 -399
944 -29 14 -52 29 -52 32 0 15 65 96 102 129 87 75 235 130 373 138 90 6 120
20 139 67 17 43 12 75 -17 107 -35 39 -68 44 -202 29 -257 -28 -483 -176 -592
-386 -12 -24 -16 -25 -124 -26 -94 -2 -111 1 -116 15 -11 28 -85 134 -122 174
-82 87 -252 179 -381 206 -122 26 -218 32 -256 16z m1011 -636 c306 -71 503
-369 449 -680 -50 -286 -294 -492 -584 -492 -359 0 -637 318 -589 672 48 345
385 578 724 500z m-1774 -673 c66 -18 56 -13 656 -314 l463 -232 -73 -72 c-41
-40 -86 -92 -102 -115 -15 -24 -33 -44 -39 -44 -59 -6 -1281 -3 -1310 4 -108
22 -218 173 -229 314 -5 71 18 175 54 243 64 121 192 205 354 233 43 7 173 -2
226 -17z m3539 10 c152 -31 276 -128 335 -260 84 -189 27 -398 -136 -502 l-44
-28 -645 -1 c-355 0 -655 1 -667 3 -12 2 -34 22 -49 45 -15 22 -60 74 -100
114 -62 62 -70 74 -56 82 9 5 247 124 527 264 463 232 568 279 645 289 39 5
152 2 190 -6z m-2090 -697 c125 -34 294 -29 428 13 l64 19 41 -27 c98 -65 208
-193 267 -313 17 -35 30 -64 28 -66 -2 -2 -16 -6 -31 -9 -90 -17 -148 -26
-192 -31 -27 -4 -61 -8 -75 -11 -131 -21 -565 -21 -678 1 -10 2 -43 6 -73 10
-30 3 -76 10 -104 15 -27 5 -67 12 -87 15 -21 3 -38 9 -38 13 0 12 61 125 94
172 73 108 222 236 261 225 11 -3 54 -15 95 -26z m-660 -317 c0 -7 -7 -29 -16
-50 -18 -44 -62 -226 -66 -273 -2 -31 -8 -35 -124 -91 -110 -53 -129 -59 -191
-61 -112 -2 -175 17 -241 77 -71 64 -104 185 -75 272 17 50 68 113 104 128 41
17 609 16 609 -2z m2323 -4 c95 -63 127 -201 72 -313 -52 -107 -162 -166 -295
-159 -71 4 -114 19 -236 81 l-81 42 -6 53 c-11 91 -18 119 -62 248 l-22 65
302 0 c267 0 304 -2 328 -17z m-2078 -277 c90 -15 144 -23 255 -36 195 -23
552 -23 690 -1 14 3 52 7 85 11 33 3 87 10 120 16 33 6 71 12 85 14 14 3 37 7
51 10 24 6 27 3 34 -32 11 -62 17 -124 17 -188 1 -115 2 -112 -44 -129 -74
-26 -152 -45 -275 -67 -201 -37 -735 -33 -862 5 -9 3 -32 8 -51 11 -46 8 -177
44 -207 58 -25 11 -26 19 -24 132 1 68 7 129 15 170 3 11 5 26 5 34 1 9 9 11
24 8 12 -3 49 -10 82 -16z m15 -581 c25 -7 54 -14 65 -16 68 -12 161 -25 207
-29 29 -3 73 -8 98 -10 62 -6 372 -6 445 0 117 10 250 29 325 46 25 6 53 12
63 14 10 2 28 7 39 11 17 5 19 3 13 -18 -16 -54 -85 -230 -125 -321 l-43 -97
-51 -15 c-279 -80 -615 -80 -891 1 l-52 15 -43 97 c-40 90 -109 266 -125 320
-6 20 -4 23 12 19 10 -3 38 -11 63 -17z m320 -687 c25 -2 68 -8 95 -12 77 -11
349 -4 450 12 50 8 92 13 93 12 2 -2 -20 -50 -50 -106 l-54 -103 -64 -14 c-73
-15 -257 -20 -340 -9 -126 17 -120 12 -177 122 -29 55 -52 104 -53 109 0 4 12
5 28 1 15 -4 47 -9 72 -12z m342 -570 c-37 -73 -69 -132 -72 -132 -3 0 -35 59
-72 132 l-66 133 138 0 138 0 -66 -133z"/>
</g>
</svg>
